<svg version="1.1" xmlns="http://www.w3.org/2000/svg" xmlns:xlink="http://www.w3.org/1999/xlink" width="472.1" height="436.20000000000005"><defs><linearGradient id="bNqmlLZGLTih" x1="1403.0000007152557px" x2="400px" y1="439px" y2="3413.40001001358px" gradientUnits="userSpaceOnUse"><stop offset="0" stop-color="rgb(211,211,211)" stop-opacity="1"/><stop offset="1" stop-color="rgb(211,211,211)" stop-opacity="1"/></linearGradient><linearGradient id="rInvtqAaJNUI" x1="1677.0000007152557px" x2="2327.2000014305113px" y1="400px" y2="400px" gradientUnits="userSpaceOnUse"><stop offset="0" stop-color="rgb(211,211,211)" stop-opacity="1"/><stop offset="1" stop-color="rgb(211,211,211)" stop-opacity="1"/></linearGradient><linearGradient id="bXxqEbWGSbAJ" x1="1677.0000007152557px" x2="3522.900002145767px" y1="400px" y2="400px" gradientUnits="userSpaceOnUse"><stop offset="0" stop-color="rgb(211,211,211)" stop-opacity="1"/><stop offset="1" stop-color="rgb(220,71,125)" stop-opacity="1"/></linearGradient><linearGradient id="OBaAuliZSUzL" x1="1403.0000007152557px" x2="2696.4000014305116px" y1="439px" y2="1656.7000042915345px" gradientUnits="userSpaceOnUse"><stop offset="0" stop-color="rgb(211,211,211)" stop-opacity="1"/><stop offset="1" stop-color="rgb(29,122,218)" stop-opacity="1"/></linearGradient><linearGradient id="gueOgTIZrmEA" x1="2601.2000014305113px" x2="400px" y1="439px" y2="2957.2000085830687px" gradientUnits="userSpaceOnUse"><stop offset="0" stop-color="rgb(211,211,211)" stop-opacity="1"/><stop offset="1" stop-color="rgb(211,211,211)" stop-opacity="1"/></linearGradient><linearGradient id="VwACCbZJTKEy" x1="1498.2000007152558px" x2="1403.0000007152557px" y1="1257.7000021457673px" y2="439px" gradientUnits="userSpaceOnUse"><stop offset="0" stop-color="rgb(255,193,7)" stop-opacity="1"/><stop offset="1" stop-color="rgb(211,211,211)" stop-opacity="1"/></linearGradient><linearGradient id="JkCObdGxvEQN" x1="1498.2000007152558px" x2="1403.0000007152557px" y1="1390.700002861023px" y2="439px" gradientUnits="userSpaceOnUse"><stop offset="0" stop-color="rgb(255,193,7)" stop-opacity="1"/><stop offset="1" stop-color="rgb(211,211,211)" stop-opacity="1"/></linearGradient><linearGradient id="kXvEyRgchTJi" x1="1221.7000007152558px" x2="674px" y1="1033.2000007152558px" y2="1133.2000007152558px" gradientUnits="userSpaceOnUse"><stop offset="0" stop-color="rgb(255,193,7)" stop-opacity="1"/><stop offset="1" stop-color="rgb(211,211,211)" stop-opacity="1"/></linearGradient><linearGradient id="txRDSVKiIdXz" x1="1324.2000007152558px" x2="674px" y1="1665.2000035762787px" y2="1133.2000007152558px" gradientUnits="userSpaceOnUse"><stop offset="0" stop-color="rgb(211,211,211)" stop-opacity="1"/><stop offset="1" stop-color="rgb(211,211,211)" stop-opacity="1"/></linearGradient><linearGradient id="KLKTdpNlLBQy" x1="1872.2000007152558px" x2="3022.9000021457673px" y1="1665.2000035762787px" y2="1166.2000014305115px" gradientUnits="userSpaceOnUse"><stop offset="0" stop-color="rgb(211,211,211)" stop-opacity="1"/><stop offset="1" stop-color="rgb(29,122,218)" stop-opacity="1"/></linearGradient><linearGradient id="lIcTrNKGLahR" x1="1872.2000007152558px" x2="3022.9000021457673px" y1="1665.2000035762787px" y2="2097.2000064373015px" gradientUnits="userSpaceOnUse"><stop offset="0" stop-color="rgb(211,211,211)" stop-opacity="1"/><stop offset="1" stop-color="rgb(29,122,218)" stop-opacity="1"/></linearGradient><linearGradient id="XBaOoDfRDDrK" x1="1872.2000007152558px" x2="2419.9000014305116px" y1="1665.2000035762787px" y2="1964.200005722046px" gradientUnits="userSpaceOnUse"><stop offset="0" stop-color="rgb(211,211,211)" stop-opacity="1"/><stop offset="1" stop-color="rgb(29,122,218)" stop-opacity="1"/></linearGradient><linearGradient id="kcXIuXQcIhxE" x1="1872.2000007152558px" x2="2419.9000014305116px" y1="1665.2000035762787px" y2="1166.2000014305115px" gradientUnits="userSpaceOnUse"><stop offset="0" stop-color="rgb(211,211,211)" stop-opacity="1"/><stop offset="1" stop-color="rgb(29,122,218)" stop-opacity="1"/></linearGradient><linearGradient id="qkgrXSlwidvb" x1="1598.2000007152558px" x2="1403.0000007152557px" y1="1754.2000042915345px" y2="439px" gradientUnits="userSpaceOnUse"><stop offset="0" stop-color="rgb(211,211,211)" stop-opacity="1"/><stop offset="1" stop-color="rgb(211,211,211)" stop-opacity="1"/></linearGradient><linearGradient id="wNWgpLoubVLM" x1="1498.2000007152558px" x2="1403.0000007152557px" y1="1124.7000014305115px" y2="439px" gradientUnits="userSpaceOnUse"><stop offset="0" stop-color="rgb(255,193,7)" stop-opacity="1"/><stop offset="1" stop-color="rgb(211,211,211)" stop-opacity="1"/></linearGradient><linearGradient id="ThsVOSAaDfbu" x1="400px" x2="2696.4000014305116px" y1="2957.2000085830687px" y2="1074.7000007152558px" gradientUnits="userSpaceOnUse"><stop offset="0" stop-color="rgb(211,211,211)" stop-opacity="1"/><stop offset="1" stop-color="rgb(29,122,218)" stop-opacity="1"/></linearGradient><linearGradient id="aNFXBwQOKVEq" x1="400px" x2="300px" y1="2957.2000085830687px" y2="341.5px" gradientUnits="userSpaceOnUse"><stop offset="0" stop-color="rgb(211,211,211)" stop-opacity="1"/><stop offset="1" stop-color="rgb(0,0,0)" stop-opacity="1"/></linearGradient><linearGradient id="DPENUnBWKkrb" x1="924.2000007152558px" x2="674px" y1="2996.2000085830687px" y2="2996.2000085830687px" gradientUnits="userSpaceOnUse"><stop offset="0" stop-color="rgb(211,211,211)" stop-opacity="1"/><stop offset="1" stop-color="rgb(211,211,211)" stop-opacity="1"/></linearGradient><linearGradient id="TrbiGZBXWeXw" x1="1198.2000007152558px" x2="400px" y1="3363.400009298324px" y2="3869.6000114440917px" gradientUnits="userSpaceOnUse"><stop offset="0" stop-color="rgb(211,211,211)" stop-opacity="1"/><stop offset="1" stop-color="rgb(211,211,211)" stop-opacity="1"/></linearGradient><linearGradient id="WGIudqiDJvxP" x1="924.2000007152558px" x2="674px" y1="3324.400009298324px" y2="3452.40001001358px" gradientUnits="userSpaceOnUse"><stop offset="0" stop-color="rgb(211,211,211)" stop-opacity="1"/><stop offset="1" stop-color="rgb(211,211,211)" stop-opacity="1"/></linearGradient><linearGradient id="WQGaAvLQcDCc" x1="400px" x2="400px" y1="3741.600010728836px" y2="3035.2000085830687px" gradientUnits="userSpaceOnUse"><stop offset="0" stop-color="rgb(211,211,211)" stop-opacity="1"/><stop offset="1" stop-color="rgb(211,211,211)" stop-opacity="1"/></linearGradient><linearGradient id="JDRwWtnvxVNc" x1="400px" x2="1198.2000007152558px" y1="3741.600010728836px" y2="3035.2000085830687px" gradientUnits="userSpaceOnUse"><stop offset="0" stop-color="rgb(211,211,211)" stop-opacity="1"/><stop offset="1" stop-color="rgb(211,211,211)" stop-opacity="1"/></linearGradient><linearGradient id="UgBmhWMciHxI" x1="400px" x2="400px" y1="3869.6000114440917px" y2="3035.2000085830687px" gradientUnits="userSpaceOnUse"><stop offset="0" stop-color="rgb(211,211,211)" stop-opacity="1"/><stop offset="1" stop-color="rgb(211,211,211)" stop-opacity="1"/></linearGradient><linearGradient id="IkmdkaDqGJeT" x1="400px" x2="1198.2000007152558px" y1="3869.6000114440917px" y2="3035.2000085830687px" gradientUnits="userSpaceOnUse"><stop offset="0" stop-color="rgb(211,211,211)" stop-opacity="1"/><stop offset="1" stop-color="rgb(211,211,211)" stop-opacity="1"/></linearGradient><linearGradient id="xpPJWobViatb" x1="1198.2000007152558px" x2="400px" y1="3491.40001001358px" y2="3741.600010728836px" gradientUnits="userSpaceOnUse"><stop offset="0" stop-color="rgb(211,211,211)" stop-opacity="1"/><stop offset="1" stop-color="rgb(211,211,211)" stop-opacity="1"/></linearGradient><linearGradient id="QUyEiyXHMOJw" x1="924.2000007152558px" x2="674px" y1="3452.40001001358px" y2="3324.400009298324px" gradientUnits="userSpaceOnUse"><stop offset="0" stop-color="rgb(211,211,211)" stop-opacity="1"/><stop offset="1" stop-color="rgb(211,211,211)" stop-opacity="1"/></linearGradient><linearGradient id="wSCeQISkpyUE" x1="400px" x2="400px" y1="3285.400009298324px" y2="3035.2000085830687px" gradientUnits="userSpaceOnUse"><stop offset="0" stop-color="rgb(211,211,211)" stop-opacity="1"/><stop offset="1" stop-color="rgb(211,211,211)" stop-opacity="1"/></linearGradient><linearGradient id="NfQzEATvzEtT" x1="674px" x2="3022.9000021457673px" y1="3324.400009298324px" y2="1698.2000042915345px" gradientUnits="userSpaceOnUse"><stop offset="0" stop-color="rgb(211,211,211)" stop-opacity="1"/><stop offset="1" stop-color="rgb(29,122,218)" stop-opacity="1"/></linearGradient><linearGradient id="mEOrhagpXyrN" x1="674.0000000000001px" x2="2419.9000014305116px" y1="3324.400009298324px" y2="2230.200007152557px" gradientUnits="userSpaceOnUse"><stop offset="0" stop-color="rgb(211,211,211)" stop-opacity="1"/><stop offset="1" stop-color="rgb(29,122,218)" stop-opacity="1"/></linearGradient><linearGradient id="UiwfpPdnPIoP" x1="400px" x2="300px" y1="3285.400009298324px" y2="341.5px" gradientUnits="userSpaceOnUse"><stop offset="0" stop-color="rgb(211,211,211)" stop-opacity="1"/><stop offset="1" stop-color="rgb(0,0,0)" stop-opacity="1"/></linearGradient><linearGradient id="JlygDVeklEqM" x1="400px" x2="2696.4000014305116px" y1="3413.40001001358px" y2="1340.7000021457673px" gradientUnits="userSpaceOnUse"><stop offset="0" stop-color="rgb(211,211,211)" stop-opacity="1"/><stop offset="1" stop-color="rgb(29,122,218)" stop-opacity="1"/></linearGradient><linearGradient id="gEHGUpOHTPqR" x1="400px" x2="2696.4000014305116px" y1="3413.40001001358px" y2="1207.7000014305115px" gradientUnits="userSpaceOnUse"><stop offset="0" stop-color="rgb(211,211,211)" stop-opacity="1"/><stop offset="1" stop-color="rgb(29,122,218)" stop-opacity="1"/></linearGradient><linearGradient id="wmAohwIDOoyT" x1="400px" x2="300px" y1="3413.40001001358px" y2="341.5px" gradientUnits="userSpaceOnUse"><stop offset="0" stop-color="rgb(211,211,211)" stop-opacity="1"/><stop offset="1" stop-color="rgb(0,0,0)" stop-opacity="1"/></linearGradient><linearGradient id="HOhppEgpxOTC" x1="400px" x2="400px" y1="3413.40001001358px" y2="3035.2000085830687px" gradientUnits="userSpaceOnUse"><stop offset="0" stop-color="rgb(211,211,211)" stop-opacity="1"/><stop offset="1" stop-color="rgb(211,211,211)" stop-opacity="1"/></linearGradient><linearGradient id="HRACzwzahUKv" x1="674.0000000000001px" x2="2419.9000014305116px" y1="1133.2000007152558px" y2="2363.200007867813px" gradientUnits="userSpaceOnUse"><stop offset="0" stop-color="rgb(211,211,211)" stop-opacity="1"/><stop offset="1" stop-color="rgb(29,122,218)" stop-opacity="1"/></linearGradient><linearGradient id="OkkGZilTfWJU" x1="674px" x2="3022.9000021457673px" y1="1133.2000007152558px" y2="1299.2000021457673px" gradientUnits="userSpaceOnUse"><stop offset="0" stop-color="rgb(211,211,211)" stop-opacity="1"/><stop offset="1" stop-color="rgb(29,122,218)" stop-opacity="1"/></linearGradient><linearGradient id="FBuuNTddDxvO" x1="674.0000000000001px" x2="2419.9000014305116px" y1="1133.2000007152558px" y2="2097.2000064373015px" gradientUnits="userSpaceOnUse"><stop offset="0" stop-color="rgb(211,211,211)" stop-opacity="1"/><stop offset="1" stop-color="rgb(29,122,218)" stop-opacity="1"/></linearGradient><linearGradient id="keWchVkBvQGN" x1="674px" x2="3022.9000021457673px" y1="1133.2000007152558px" y2="1033.2000007152558px" gradientUnits="userSpaceOnUse"><stop offset="0" stop-color="rgb(211,211,211)" stop-opacity="1"/><stop offset="1" stop-color="rgb(29,122,218)" stop-opacity="1"/></linearGradient><linearGradient id="ITmJzlEuhmyv" x1="674.0000000000001px" x2="2419.9000014305116px" y1="1133.2000007152558px" y2="1831.2000050067902px" gradientUnits="userSpaceOnUse"><stop offset="0" stop-color="rgb(211,211,211)" stop-opacity="1"/><stop offset="1" stop-color="rgb(29,122,218)" stop-opacity="1"/></linearGradient><linearGradient id="uliUbHPxiaAl" x1="674px" x2="3022.9000021457673px" y1="1133.2000007152558px" y2="2230.200007152557px" gradientUnits="userSpaceOnUse"><stop offset="0" stop-color="rgb(211,211,211)" stop-opacity="1"/><stop offset="1" stop-color="rgb(29,122,218)" stop-opacity="1"/></linearGradient><linearGradient id="STbqmuxIrWuc" x1="674.0000000000001px" x2="2419.9000014305116px" y1="1133.2000007152558px" y2="1565.2000035762787px" gradientUnits="userSpaceOnUse"><stop offset="0" stop-color="rgb(211,211,211)" stop-opacity="1"/><stop offset="1" stop-color="rgb(29,122,218)" stop-opacity="1"/></linearGradient><linearGradient id="ZwBrAeAbmzmR" x1="674.0000000000001px" x2="2419.9000014305116px" y1="1133.2000007152558px" y2="1964.200005722046px" gradientUnits="userSpaceOnUse"><stop offset="0" stop-color="rgb(211,211,211)" stop-opacity="1"/><stop offset="1" stop-color="rgb(29,122,218)" stop-opacity="1"/></linearGradient><linearGradient id="HPuTXEXrKvBv" x1="400px" x2="400px" y1="1172.2000007152558px" y2="1422.4000014305116px" gradientUnits="userSpaceOnUse"><stop offset="0" stop-color="rgb(211,211,211)" stop-opacity="1"/><stop offset="1" stop-color="rgb(211,211,211)" stop-opacity="1"/></linearGradient><linearGradient id="VibAmFqdqExC" x1="674px" x2="3022.9000021457673px" y1="1133.2000007152558px" y2="1565.2000035762787px" gradientUnits="userSpaceOnUse"><stop offset="0" stop-color="rgb(211,211,211)" stop-opacity="1"/><stop offset="1" stop-color="rgb(29,122,218)" stop-opacity="1"/></linearGradient><linearGradient id="McxZwcGTvfhq" x1="674px" x2="3022.9000021457673px" y1="1133.2000007152558px" y2="2097.2000064373015px" gradientUnits="userSpaceOnUse"><stop offset="0" stop-color="rgb(211,211,211)" stop-opacity="1"/><stop offset="1" stop-color="rgb(29,122,218)" stop-opacity="1"/></linearGradient><linearGradient id="TqmXJhiIREyB" x1="674px" x2="3022.9000021457673px" y1="1133.2000007152558px" y2="1166.2000014305115px" gradientUnits="userSpaceOnUse"><stop offset="0" stop-color="rgb(211,211,211)" stop-opacity="1"/><stop offset="1" stop-color="rgb(29,122,218)" stop-opacity="1"/></linearGradient><linearGradient id="fCPbmRtoTTdN" x1="674px" x2="2327.2000014305113px" y1="1133.2000007152558px" y2="400px" gradientUnits="userSpaceOnUse"><stop offset="0" stop-color="rgb(211,211,211)" stop-opacity="1"/><stop offset="1" stop-color="rgb(211,211,211)" stop-opacity="1"/></linearGradient><linearGradient id="tonaTFheCKFD" x1="400px" x2="400px" y1="1500.4000014305116px" y2="3413.40001001358px" gradientUnits="userSpaceOnUse"><stop offset="0" stop-color="rgb(211,211,211)" stop-opacity="1"/><stop offset="1" stop-color="rgb(211,211,211)" stop-opacity="1"/></linearGradient><linearGradient id="iCpvruyXAPhm" x1="400px" x2="400px" y1="1500.4000014305116px" y2="3285.400009298324px" gradientUnits="userSpaceOnUse"><stop offset="0" stop-color="rgb(211,211,211)" stop-opacity="1"/><stop offset="1" stop-color="rgb(211,211,211)" stop-opacity="1"/></linearGradient></defs><g transform="translate(28.1,5.050000000000001) scale(0.1,0.1)"><path fill="rgb(244,236,255)" stroke="rgb(255,255,255)" paint-order="fill stroke markers" d=" M 2079.2000010728834 -48.5 L 4429.400002145767 -48.5 L 4429.400002145767 -48.5 A 8 8 0 0 1 4437.400002145767 -40.5 L 4437.400002145767 4300.600011444091 L 4437.400002145767 4300.600011444091 A 8 8 0 0 1 4429.400002145767 4308.600011444091 L -271 4308.600011444091 L -271 4308.600011444091 A 8 8 0 0 1 -279 4300.600011444091 L -279 -40.5 L -279 -40.5 A 8 8 0 0 1 -271 -48.5 L 2079.2000010728834 -48.5 Z" fill-opacity="1" stroke-opacity="1" stroke-miterlimit="10" stroke-width="2"/><text fill="rgb(0,0,0)" stroke="none" font-family="Avenir, Helvetica, Arial, sans-serif" font-size="32px" font-style="normal" font-weight="bold" text-decoration="normal" x="2079.2000010728834" y="26.5" text-anchor="middle" dominant-baseline="text-after-edge" fill-opacity="1">.</text><path fill="rgb(255,255,255)" stroke="rgb(211,211,211)" paint-order="fill stroke markers" d=" M 300 157.5 L 669.5 157.5 L 669.5 157.5 A 8 8 0 0 1 677.5 165.5 L 677.5 434.5 L 677.5 434.5 A 8 8 0 0 1 669.5 442.5 L -69.5 442.5 L -69.5 442.5 A 8 8 0 0 1 -77.5 434.5 L -77.5 165.5 L -77.5 165.5 A 8 8 0 0 1 -69.5 157.5 L 300 157.5 Z" fill-opacity="1" stroke-opacity="1" stroke-miterlimit="10"/><text fill="rgb(0,0,0)" stroke="none" font-family="Avenir, Helvetica, Arial, sans-serif" font-size="32px" font-style="normal" font-weight="bold" text-decoration="normal" x="300" y="232.5" text-anchor="middle" dominant-baseline="text-after-edge" fill-opacity="1">unknown file</text><path fill="rgb(255,255,255)" stroke="rgb(211,211,211)" paint-order="fill stroke markers" d=" M 3799.400002145767 153 L 4227.900002145767 153 L 4227.900002145767 153 A 8 8 0 0 1 4235.900002145767 161 L 4235.900002145767 593.5 L 4235.900002145767 593.5 A 8 8 0 0 1 4227.900002145767 601.5 L 3370.900002145767 601.5 L 3370.900002145767 601.5 A 8 8 0 0 1 3362.900002145767 593.5 L 3362.900002145767 161 L 3362.900002145767 161 A 8 8 0 0 1 3370.900002145767 153 L 3799.400002145767 153 Z" fill-opacity="1" stroke-opacity="1" stroke-miterlimit="10"/><text fill="rgb(0,0,0)" stroke="none" font-family="Avenir, Helvetica, Arial, sans-serif" font-size="32px" font-style="normal" font-weight="bold" text-decoration="normal" x="3799.400002145767" y="228" text-anchor="middle" dominant-baseline="text-after-edge" fill-opacity="1">data.tf</text><path fill="rgb(255,255,255)" stroke="rgb(211,211,211)" paint-order="fill stroke markers" d=" M 400 889.2000007152559 L 825.5 889.2000007152559 L 825.5 889.2000007152559 A 8 8 0 0 1 833.5 897.2000007152559 L 833.5 1651.9000014305116 L 833.5 1651.9000014305116 A 8 8 0 0 1 825.5 1659.9000014305116 L -25.5 1659.9000014305116 L -25.5 1659.9000014305116 A 8 8 0 0 1 -33.5 1651.9000014305116 L -33.5 897.2000007152559 L -33.5 897.2000007152559 A 8 8 0 0 1 -25.5 889.2000007152559 L 400 889.2000007152559 Z" fill-opacity="1" stroke-opacity="1" stroke-miterlimit="10"/><text fill="rgb(0,0,0)" stroke="none" font-family="Avenir, Helvetica, Arial, sans-serif" font-size="32px" font-style="normal" font-weight="bold" text-decoration="normal" x="400" y="964.2000007152559" text-anchor="middle" dominant-baseline="text-after-edge" fill-opacity="1">rds.tf</text><path fill="rgb(255,255,255)" stroke="rgb(211,211,211)" paint-order="fill stroke markers" d=" M 1403.0000007152557 156 L 1828.5000007152557 156 L 1828.5000007152557 156 A 8 8 0 0 1 1836.5000007152557 164 L 1836.5000007152557 590.5 L 1836.5000007152557 590.5 A 8 8 0 0 1 1828.5000007152557 598.5 L 977.5000007152557 598.5 L 977.5000007152557 598.5 A 8 8 0 0 1 969.5000007152557 590.5 L 969.5000007152557 164 L 969.5000007152557 164 A 8 8 0 0 1 977.5000007152557 156 L 1403.0000007152557 156 Z" fill-opacity="1" stroke-opacity="1" stroke-miterlimit="10"/><text fill="rgb(0,0,0)" stroke="none" font-family="Avenir, Helvetica, Arial, sans-serif" font-size="32px" font-style="normal" font-weight="bold" text-decoration="normal" x="1403.0000007152557" y="231" text-anchor="middle" dominant-baseline="text-after-edge" fill-opacity="1">instances.tf</text><path fill="rgb(255,255,255)" stroke="rgb(211,211,211)" paint-order="fill stroke markers" d=" M 2601.2000014305113 156 L 3026.7000014305113 156 L 3026.7000014305113 156 A 8 8 0 0 1 3034.7000014305113 164 L 3034.7000014305113 590.5 L 3034.7000014305113 590.5 A 8 8 0 0 1 3026.7000014305113 598.5 L 2175.7000014305113 598.5 L 2175.7000014305113 598.5 A 8 8 0 0 1 2167.7000014305113 590.5 L 2167.7000014305113 164 L 2167.7000014305113 164 A 8 8 0 0 1 2175.7000014305113 156 L 2601.2000014305113 156 Z" fill-opacity="1" stroke-opacity="1" stroke-miterlimit="10"/><text fill="rgb(0,0,0)" stroke="none" font-family="Avenir, Helvetica, Arial, sans-serif" font-size="32px" font-style="normal" font-weight="bold" text-decoration="normal" x="2601.2000014305113" y="231" text-anchor="middle" dominant-baseline="text-after-edge" fill-opacity="1">security-group.tf</text><path fill="rgb(255,255,255)" stroke="rgb(211,211,211)" paint-order="fill stroke markers" d=" M 1576.2000007152558 890.7000007152558 L 2023.7000007152558 890.7000007152558 L 2023.7000007152558 890.7000007152558 A 8 8 0 0 1 2031.7000007152558 898.7000007152558 L 2031.7000007152558 1983.7000042915345 L 2031.7000007152558 1983.7000042915345 A 8 8 0 0 1 2023.7000007152558 1991.7000042915345 L 1128.7000007152558 1991.7000042915345 L 1128.7000007152558 1991.7000042915345 A 8 8 0 0 1 1120.7000007152558 1983.7000042915345 L 1120.7000007152558 898.7000007152558 L 1120.7000007152558 898.7000007152558 A 8 8 0 0 1 1128.7000007152558 890.7000007152558 L 1576.2000007152558 890.7000007152558 Z" fill-opacity="1" stroke-opacity="1" stroke-miterlimit="10"/><text fill="rgb(0,0,0)" stroke="none" font-family="Avenir, Helvetica, Arial, sans-serif" font-size="32px" font-style="normal" font-weight="bold" text-decoration="normal" x="1576.2000007152558" y="965.7000007152558" text-anchor="middle" dominant-baseline="text-after-edge" fill-opacity="1">outputs.tf</text><path fill="rgb(255,255,255)" stroke="rgb(211,211,211)" paint-order="fill stroke markers" d=" M 2997.9000017881394 890.7000007152557 L 3668.9000021457673 890.7000007152557 L 3668.9000021457673 890.7000007152557 A 8 8 0 0 1 3676.9000021457673 898.7000007152557 L 3676.9000021457673 2497.700007867813 L 3676.9000021457673 2497.700007867813 A 8 8 0 0 1 3668.9000021457673 2505.700007867813 L 2326.9000014305116 2505.700007867813 L 2326.9000014305116 2505.700007867813 A 8 8 0 0 1 2318.9000014305116 2497.700007867813 L 2318.9000014305116 898.7000007152557 L 2318.9000014305116 898.7000007152557 A 8 8 0 0 1 2326.9000014305116 890.7000007152557 L 2997.9000017881394 890.7000007152557 Z" fill-opacity="1" stroke-opacity="1" stroke-miterlimit="10"/><text fill="rgb(0,0,0)" stroke="none" font-family="Avenir, Helvetica, Arial, sans-serif" font-size="32px" font-style="normal" font-weight="bold" text-decoration="normal" x="2997.9000017881394" y="965.7000007152557" text-anchor="middle" dominant-baseline="text-after-edge" fill-opacity="1">variables.tf</text><path fill="rgb(255,255,255)" stroke="rgb(211,211,211)" paint-order="fill stroke markers" d=" M 799.1000003576279 2752.2000085830687 L 1623.7000007152558 2752.2000085830687 L 1623.7000007152558 2752.2000085830687 A 8 8 0 0 1 1631.7000007152558 2760.2000085830687 L 1631.7000007152558 4099.100011444091 L 1631.7000007152558 4099.100011444091 A 8 8 0 0 1 1623.7000007152558 4107.100011444091 L -25.5 4107.100011444091 L -25.5 4107.100011444091 A 8 8 0 0 1 -33.5 4099.100011444091 L -33.5 2760.2000085830687 L -33.5 2760.2000085830687 A 8 8 0 0 1 -25.5 2752.2000085830687 L 799.1000003576279 2752.2000085830687 Z" fill-opacity="1" stroke-opacity="1" stroke-miterlimit="10"/><text fill="rgb(0,0,0)" stroke="none" font-family="Avenir, Helvetica, Arial, sans-serif" font-size="32px" font-style="normal" font-weight="bold" text-decoration="normal" x="799.1000003576279" y="2827.2000085830687" text-anchor="middle" dominant-baseline="text-after-edge" fill-opacity="1">network.tf</text><path fill="rgb(255,255,255)" stroke="rgb(0,0,0)" paint-order="fill stroke markers" d=" M 3799.400002145767 302 L 4124.400002145767 302 L 4124.400002145767 302 A 8 8 0 0 1 4132.400002145767 310 L 4132.400002145767 490 L 4132.400002145767 490 A 8 8 0 0 1 4124.400002145767 498 L 3474.400002145767 498 L 3474.400002145767 498 A 8 8 0 0 1 3466.400002145767 490 L 3466.400002145767 310 L 3466.400002145767 310 A 8 8 0 0 1 3474.400002145767 302 L 3799.400002145767 302 Z" fill-opacity="1" stroke-opacity="1" stroke-miterlimit="10" stroke-width="5"/><rect fill="rgb(255,255,255)" stroke="none" x="3700.900002145767" y="253" width="197" height="96" fill-opacity="1"/><text fill="rgb(0,0,0)" stroke="none" font-family="Avenir, Helvetica, Arial, sans-serif" font-size="32px" font-style="normal" font-weight="bold" text-decoration="normal" x="3799.400002145767" y="317" text-anchor="middle" dominant-baseline="text-after-edge" fill-opacity="1">aws_ami</text><path fill="rgb(255,255,255)" stroke="rgb(0,0,0)" paint-order="fill stroke markers" d=" M 400 1038.2000007152558 L 722 1038.2000007152558 L 722 1038.2000007152558 A 8 8 0 0 1 730 1046.2000007152558 L 730 1220.2000007152558 L 730 1220.2000007152558 A 8 8 0 0 1 722 1228.2000007152558 L 78 1228.2000007152558 L 78 1228.2000007152558 A 8 8 0 0 1 70 1220.2000007152558 L 70 1046.2000007152558 L 70 1046.2000007152558 A 8 8 0 0 1 78 1038.2000007152558 L 400 1038.2000007152558 Z" fill-opacity="1" stroke-opacity="1" stroke-miterlimit="10" stroke-width="5"/><rect fill="rgb(255,255,255)" stroke="none" x="235.5" y="989.2000007152558" width="329" height="96" fill-opacity="1"/><text fill="rgb(0,0,0)" stroke="none" font-family="Avenir, Helvetica, Arial, sans-serif" font-size="32px" font-style="normal" font-weight="bold" text-decoration="normal" x="400" y="1053.2000007152558" text-anchor="middle" dominant-baseline="text-after-edge" fill-opacity="1">aws_db_instance</text><path fill="rgb(255,255,255)" stroke="rgb(0,0,0)" paint-order="fill stroke markers" d=" M 400 1366.4000014305116 L 722 1366.4000014305116 L 722 1366.4000014305116 A 8 8 0 0 1 730 1374.4000014305116 L 730 1548.4000014305116 L 730 1548.4000014305116 A 8 8 0 0 1 722 1556.4000014305116 L 78 1556.4000014305116 L 78 1556.4000014305116 A 8 8 0 0 1 70 1548.4000014305116 L 70 1374.4000014305116 L 70 1374.4000014305116 A 8 8 0 0 1 78 1366.4000014305116 L 400 1366.4000014305116 Z" fill-opacity="1" stroke-opacity="1" stroke-miterlimit="10" stroke-width="5"/><rect fill="rgb(255,255,255)" stroke="none" x="194" y="1317.4000014305116" width="412" height="96" fill-opacity="1"/><text fill="rgb(0,0,0)" stroke="none" font-family="Avenir, Helvetica, Arial, sans-serif" font-size="32px" font-style="normal" font-weight="bold" text-decoration="normal" x="400" y="1381.4000014305116" text-anchor="middle" dominant-baseline="text-after-edge" fill-opacity="1">aws_db_subnet_group</text><path fill="rgb(255,255,255)" stroke="rgb(0,0,0)" paint-order="fill stroke markers" d=" M 1403.0000007152557 305 L 1725.0000007152557 305 L 1725.0000007152557 305 A 8 8 0 0 1 1733.0000007152557 313 L 1733.0000007152557 487 L 1733.0000007152557 487 A 8 8 0 0 1 1725.0000007152557 495 L 1081.0000007152557 495 L 1081.0000007152557 495 A 8 8 0 0 1 1073.0000007152557 487 L 1073.0000007152557 313 L 1073.0000007152557 313 A 8 8 0 0 1 1081.0000007152557 305 L 1403.0000007152557 305 Z" fill-opacity="1" stroke-opacity="1" stroke-miterlimit="10" stroke-width="5"/><rect fill="rgb(255,255,255)" stroke="none" x="1267.0000007152557" y="256" width="272" height="96" fill-opacity="1"/><text fill="rgb(0,0,0)" stroke="none" font-family="Avenir, Helvetica, Arial, sans-serif" font-size="32px" font-style="normal" font-weight="bold" text-decoration="normal" x="1403.0000007152557" y="320" text-anchor="middle" dominant-baseline="text-after-edge" fill-opacity="1">aws_instance</text><path fill="rgb(255,255,255)" stroke="rgb(0,0,0)" paint-order="fill stroke markers" d=" M 2601.2000014305113 305 L 2923.2000014305113 305 L 2923.2000014305113 305 A 8 8 0 0 1 2931.2000014305113 313 L 2931.2000014305113 487 L 2931.2000014305113 487 A 8 8 0 0 1 2923.2000014305113 495 L 2279.2000014305113 495 L 2279.2000014305113 495 A 8 8 0 0 1 2271.2000014305113 487 L 2271.2000014305113 313 L 2271.2000014305113 313 A 8 8 0 0 1 2279.2000014305113 305 L 2601.2000014305113 305 Z" fill-opacity="1" stroke-opacity="1" stroke-miterlimit="10" stroke-width="5"/><rect fill="rgb(255,255,255)" stroke="none" x="2414.7000014305113" y="256" width="373" height="96" fill-opacity="1"/><text fill="rgb(0,0,0)" stroke="none" font-family="Avenir, Helvetica, Arial, sans-serif" font-size="32px" font-style="normal" font-weight="bold" text-decoration="normal" x="2601.2000014305113" y="320" text-anchor="middle" dominant-baseline="text-after-edge" fill-opacity="1">aws_security_group</text><path fill="rgb(255,255,255)" stroke="rgb(0,0,0)" paint-order="fill stroke markers" d=" M 1598.2000007152558 1570.2000035762787 L 1920.2000007152558 1570.2000035762787 L 1920.2000007152558 1570.2000035762787 A 8 8 0 0 1 1928.2000007152558 1578.2000035762787 L 1928.2000007152558 1880.2000042915345 L 1928.2000007152558 1880.2000042915345 A 8 8 0 0 1 1920.2000007152558 1888.2000042915345 L 1276.2000007152558 1888.2000042915345 L 1276.2000007152558 1888.2000042915345 A 8 8 0 0 1 1268.2000007152558 1880.2000042915345 L 1268.2000007152558 1578.2000035762787 L 1268.2000007152558 1578.2000035762787 A 8 8 0 0 1 1276.2000007152558 1570.2000035762787 L 1598.2000007152558 1570.2000035762787 Z" fill-opacity="1" stroke-opacity="1" stroke-miterlimit="10" stroke-width="5"/><rect fill="rgb(255,255,255)" stroke="none" x="1497.7000007152558" y="1521.2000035762787" width="201" height="96" fill-opacity="1"/><text fill="rgb(0,0,0)" stroke="none" font-family="Avenir, Helvetica, Arial, sans-serif" font-size="32px" font-style="normal" font-weight="bold" text-decoration="normal" x="1598.2000007152558" y="1585.2000035762787" text-anchor="middle" dominant-baseline="text-after-edge" fill-opacity="1">local_file</text><path fill="rgb(255,255,255)" stroke="rgb(0,0,0)" paint-order="fill stroke markers" d=" M 400 3229.400009298324 L 722 3229.400009298324 L 722 3229.400009298324 A 8 8 0 0 1 730 3237.400009298324 L 730 3539.40001001358 L 730 3539.40001001358 A 8 8 0 0 1 722 3547.40001001358 L 78 3547.40001001358 L 78 3547.40001001358 A 8 8 0 0 1 70 3539.40001001358 L 70 3237.400009298324 L 70 3237.400009298324 A 8 8 0 0 1 78 3229.400009298324 L 400 3229.400009298324 Z" fill-opacity="1" stroke-opacity="1" stroke-miterlimit="10" stroke-width="5"/><rect fill="rgb(255,255,255)" stroke="none" x="277" y="3180.400009298324" width="246" height="96" fill-opacity="1"/><text fill="rgb(0,0,0)" stroke="none" font-family="Avenir, Helvetica, Arial, sans-serif" font-size="32px" font-style="normal" font-weight="bold" text-decoration="normal" x="400" y="3244.400009298324" text-anchor="middle" dominant-baseline="text-after-edge" fill-opacity="1">aws_subnet</text><path fill="rgb(255,255,255)" stroke="rgb(0,0,0)" paint-order="fill stroke markers" d=" M 400 2901.2000085830687 L 722 2901.2000085830687 L 722 2901.2000085830687 A 8 8 0 0 1 730 2909.2000085830687 L 730 3083.2000085830687 L 730 3083.2000085830687 A 8 8 0 0 1 722 3091.2000085830687 L 78 3091.2000085830687 L 78 3091.2000085830687 A 8 8 0 0 1 70 3083.2000085830687 L 70 2909.2000085830687 L 70 2909.2000085830687 A 8 8 0 0 1 78 2901.2000085830687 L 400 2901.2000085830687 Z" fill-opacity="1" stroke-opacity="1" stroke-miterlimit="10" stroke-width="5"/><rect fill="rgb(255,255,255)" stroke="none" x="301.5" y="2852.2000085830687" width="197" height="96" fill-opacity="1"/><text fill="rgb(0,0,0)" stroke="none" font-family="Avenir, Helvetica, Arial, sans-serif" font-size="32px" font-style="normal" font-weight="bold" text-decoration="normal" x="400" y="2916.2000085830687" text-anchor="middle" dominant-baseline="text-after-edge" fill-opacity="1">aws_vpc</text><path fill="rgb(255,255,255)" stroke="rgb(0,0,0)" paint-order="fill stroke markers" d=" M 1198.2000007152558 2901.2000085830687 L 1520.2000007152558 2901.2000085830687 L 1520.2000007152558 2901.2000085830687 A 8 8 0 0 1 1528.2000007152558 2909.2000085830687 L 1528.2000007152558 3083.2000085830687 L 1528.2000007152558 3083.2000085830687 A 8 8 0 0 1 1520.2000007152558 3091.2000085830687 L 876.2000007152558 3091.2000085830687 L 876.2000007152558 3091.2000085830687 A 8 8 0 0 1 868.2000007152558 3083.2000085830687 L 868.2000007152558 2909.2000085830687 L 868.2000007152558 2909.2000085830687 A 8 8 0 0 1 876.2000007152558 2901.2000085830687 L 1198.2000007152558 2901.2000085830687 Z" fill-opacity="1" stroke-opacity="1" stroke-miterlimit="10" stroke-width="5"/><rect fill="rgb(255,255,255)" stroke="none" x="997.7000007152558" y="2852.2000085830687" width="401" height="96" fill-opacity="1"/><text fill="rgb(0,0,0)" stroke="none" font-family="Avenir, Helvetica, Arial, sans-serif" font-size="32px" font-style="normal" font-weight="bold" text-decoration="normal" x="1198.2000007152558" y="2916.2000085830687" text-anchor="middle" dominant-baseline="text-after-edge" fill-opacity="1">aws_internet_gateway</text><path fill="rgb(255,255,255)" stroke="rgb(0,0,0)" paint-order="fill stroke markers" d=" M 1198.2000007152558 3229.400009298324 L 1520.2000007152558 3229.400009298324 L 1520.2000007152558 3229.400009298324 A 8 8 0 0 1 1528.2000007152558 3237.400009298324 L 1528.2000007152558 3539.40001001358 L 1528.2000007152558 3539.40001001358 A 8 8 0 0 1 1520.2000007152558 3547.40001001358 L 876.2000007152558 3547.40001001358 L 876.2000007152558 3547.40001001358 A 8 8 0 0 1 868.2000007152558 3539.40001001358 L 868.2000007152558 3237.400009298324 L 868.2000007152558 3237.400009298324 A 8 8 0 0 1 876.2000007152558 3229.400009298324 L 1198.2000007152558 3229.400009298324 Z" fill-opacity="1" stroke-opacity="1" stroke-miterlimit="10" stroke-width="5"/><rect fill="rgb(255,255,255)" stroke="none" x="944.2000007152558" y="3180.400009298324" width="508" height="96" fill-opacity="1"/><text fill="rgb(0,0,0)" stroke="none" font-family="Avenir, Helvetica, Arial, sans-serif" font-size="32px" font-style="normal" font-weight="bold" text-decoration="normal" x="1198.2000007152558" y="3244.400009298324" text-anchor="middle" dominant-baseline="text-after-edge" fill-opacity="1">aws_route_table_association</text><path fill="rgb(255,255,255)" stroke="rgb(0,0,0)" paint-order="fill stroke markers" d=" M 400 3685.600010728836 L 722 3685.600010728836 L 722 3685.600010728836 A 8 8 0 0 1 730 3693.600010728836 L 730 3995.6000114440917 L 730 3995.6000114440917 A 8 8 0 0 1 722 4003.6000114440917 L 78 4003.6000114440917 L 78 4003.6000114440917 A 8 8 0 0 1 70 3995.6000114440917 L 70 3693.600010728836 L 70 3693.600010728836 A 8 8 0 0 1 78 3685.600010728836 L 400 3685.600010728836 Z" fill-opacity="1" stroke-opacity="1" stroke-miterlimit="10" stroke-width="5"/><rect fill="rgb(255,255,255)" stroke="none" x="243" y="3636.600010728836" width="314" height="96" fill-opacity="1"/><text fill="rgb(0,0,0)" stroke="none" font-family="Avenir, Helvetica, Arial, sans-serif" font-size="32px" font-style="normal" font-weight="bold" text-decoration="normal" x="400" y="3700.600010728836" text-anchor="middle" dominant-baseline="text-after-edge" fill-opacity="1">aws_route_table</text><path fill="none" stroke="url(#bNqmlLZGLTih)" paint-order="fill stroke markers" d=" M 1403.0000007152557 439 L 1403.0000007152557 1926.20000500679 L 400 1926.20000500679 L 400 3413.40001001358" stroke-linejoin="round" stroke-miterlimit="10" stroke-width="10"/><path fill="none" stroke="url(#rInvtqAaJNUI)" paint-order="fill stroke markers" d=" M 1677.0000007152557 400 L 2002.1000010728835 400 L 2002.1000010728835 400 L 2327.2000014305113 400" stroke-linejoin="round" stroke-miterlimit="10" stroke-width="10"/><path fill="none" stroke="url(#bXxqEbWGSbAJ)" paint-order="fill stroke markers" d=" M 1677.0000007152557 400 L 2599.9500014305113 400 L 2599.9500014305113 400 L 3522.900002145767 400" stroke-linejoin="round" stroke-miterlimit="10" stroke-width="10"/><path fill="none" stroke="url(#OBaAuliZSUzL)" paint-order="fill stroke markers" d=" M 1403.0000007152557 439 L 1403.0000007152557 1047.8500021457671 L 2696.4000014305116 1047.8500021457671 L 2696.4000014305116 1656.7000042915345" stroke-linejoin="round" stroke-miterlimit="10" stroke-width="10"/><path fill="none" stroke="url(#gueOgTIZrmEA)" paint-order="fill stroke markers" d=" M 2601.2000014305113 439 L 2601.2000014305113 1698.1000042915343 L 400 1698.1000042915343 L 400 2957.2000085830687" stroke-linejoin="round" stroke-miterlimit="10" stroke-width="10"/><path fill="none" stroke="url(#VwACCbZJTKEy)" paint-order="fill stroke markers" d=" M 1498.2000007152558 1257.7000021457673 L 1498.2000007152558 848.3500010728836 L 1403.0000007152557 848.3500010728836 L 1403.0000007152557 439" stroke-linejoin="round" stroke-miterlimit="10" stroke-width="10"/><path fill="none" stroke="url(#JkCObdGxvEQN)" paint-order="fill stroke markers" d=" M 1498.2000007152558 1390.700002861023 L 1498.2000007152558 914.8500014305115 L 1403.0000007152557 914.8500014305115 L 1403.0000007152557 439" stroke-linejoin="round" stroke-miterlimit="10" stroke-width="10"/><path fill="none" stroke="url(#kXvEyRgchTJi)" paint-order="fill stroke markers" d=" M 1221.7000007152558 1033.2000007152558 L 947.8500003576278 1033.2000007152558 L 947.8500003576278 1133.2000007152558 L 674 1133.2000007152558" stroke-linejoin="round" stroke-miterlimit="10" stroke-width="10"/><path fill="none" stroke="url(#txRDSVKiIdXz)" paint-order="fill stroke markers" d=" M 1324.2000007152558 1665.2000035762787 L 999.1000003576278 1665.2000035762787 L 999.1000003576278 1133.2000007152558 L 674 1133.2000007152558" stroke-linejoin="round" stroke-miterlimit="10" stroke-width="10"/><path fill="none" stroke="url(#KLKTdpNlLBQy)" paint-order="fill stroke markers" d=" M 1872.2000007152558 1665.2000035762787 L 2447.5500014305117 1665.2000035762787 L 2447.5500014305117 1166.2000014305115 L 3022.9000021457673 1166.2000014305115" stroke-linejoin="round" stroke-miterlimit="10" stroke-width="10"/><path fill="none" stroke="url(#lIcTrNKGLahR)" paint-order="fill stroke markers" d=" M 1872.2000007152558 1665.2000035762787 L 2447.5500014305117 1665.2000035762787 L 2447.5500014305117 2097.2000064373015 L 3022.9000021457673 2097.2000064373015" stroke-linejoin="round" stroke-miterlimit="10" stroke-width="10"/><path fill="none" stroke="url(#XBaOoDfRDDrK)" paint-order="fill stroke markers" d=" M 1872.2000007152558 1665.2000035762787 L 2146.050001072884 1665.2000035762787 L 2146.050001072884 1964.200005722046 L 2419.9000014305116 1964.200005722046" stroke-linejoin="round" stroke-miterlimit="10" stroke-width="10"/><path fill="none" stroke="url(#kcXIuXQcIhxE)" paint-order="fill stroke markers" d=" M 1872.2000007152558 1665.2000035762787 L 2146.050001072884 1665.2000035762787 L 2146.050001072884 1166.2000014305115 L 2419.9000014305116 1166.2000014305115" stroke-linejoin="round" stroke-miterlimit="10" stroke-width="10"/><path fill="none" stroke="url(#qkgrXSlwidvb)" paint-order="fill stroke markers" d=" M 1598.2000007152558 1754.2000042915345 L 1598.2000007152558 1096.6000021457671 L 1403.0000007152557 1096.6000021457671 L 1403.0000007152557 439" stroke-linejoin="round" stroke-miterlimit="10" stroke-width="10"/><path fill="none" stroke="url(#wNWgpLoubVLM)" paint-order="fill stroke markers" d=" M 1498.2000007152558 1124.7000014305115 L 1498.2000007152558 781.8500007152558 L 1403.0000007152557 781.8500007152558 L 1403.0000007152557 439" stroke-linejoin="round" stroke-miterlimit="10" stroke-width="10"/><path fill="none" stroke="url(#ThsVOSAaDfbu)" paint-order="fill stroke markers" d=" M 400 2957.2000085830687 L 400 2015.950004649162 L 2696.4000014305116 2015.950004649162 L 2696.4000014305116 1074.7000007152558" stroke-linejoin="round" stroke-miterlimit="10" stroke-width="10"/><path fill="none" stroke="url(#aNFXBwQOKVEq)" paint-order="fill stroke markers" d=" M 400 2957.2000085830687 L 400 1649.3500042915343 L 300 1649.3500042915343 L 300 341.5" stroke-linejoin="round" stroke-miterlimit="10" stroke-width="10"/><path fill="none" stroke="url(#DPENUnBWKkrb)" paint-order="fill stroke markers" d=" M 924.2000007152558 2996.2000085830687 L 799.1000003576278 2996.2000085830687 L 799.1000003576278 2996.2000085830687 L 674 2996.2000085830687" stroke-linejoin="round" stroke-miterlimit="10" stroke-width="10"/><path fill="none" stroke="url(#TrbiGZBXWeXw)" paint-order="fill stroke markers" d=" M 1198.2000007152558 3363.400009298324 L 1198.2000007152558 3616.500010371208 L 400 3616.500010371208 L 400 3869.6000114440917" stroke-linejoin="round" stroke-miterlimit="10" stroke-width="10"/><path fill="none" stroke="url(#WGIudqiDJvxP)" paint-order="fill stroke markers" d=" M 924.2000007152558 3324.400009298324 L 799.1000003576278 3324.400009298324 L 799.1000003576278 3452.40001001358 L 674 3452.40001001358" stroke-linejoin="round" stroke-miterlimit="10" stroke-width="10"/><path fill="none" stroke="url(#WQGaAvLQcDCc)" paint-order="fill stroke markers" d=" M 400 3741.600010728836 L 400 3388.400009655952 L 400 3388.400009655952 L 400 3035.2000085830687" stroke-linejoin="round" stroke-miterlimit="10" stroke-width="10"/><path fill="none" stroke="url(#JDRwWtnvxVNc)" paint-order="fill stroke markers" d=" M 400 3741.600010728836 L 400 3388.400009655952 L 1198.2000007152558 3388.400009655952 L 1198.2000007152558 3035.2000085830687" stroke-linejoin="round" stroke-miterlimit="10" stroke-width="10"/><path fill="none" stroke="url(#UgBmhWMciHxI)" paint-order="fill stroke markers" d=" M 400 3869.6000114440917 L 400 3452.40001001358 L 400 3452.40001001358 L 400 3035.2000085830687" stroke-linejoin="round" stroke-miterlimit="10" stroke-width="10"/><path fill="none" stroke="url(#IkmdkaDqGJeT)" paint-order="fill stroke markers" d=" M 400 3869.6000114440917 L 400 3452.40001001358 L 1198.2000007152558 3452.40001001358 L 1198.2000007152558 3035.2000085830687" stroke-linejoin="round" stroke-miterlimit="10" stroke-width="10"/><path fill="none" stroke="url(#xpPJWobViatb)" paint-order="fill stroke markers" d=" M 1198.2000007152558 3491.40001001358 L 1198.2000007152558 3616.500010371208 L 400 3616.500010371208 L 400 3741.600010728836" stroke-linejoin="round" stroke-miterlimit="10" stroke-width="10"/><path fill="none" stroke="url(#QUyEiyXHMOJw)" paint-order="fill stroke markers" d=" M 924.2000007152558 3452.40001001358 L 799.1000003576278 3452.40001001358 L 799.1000003576278 3324.400009298324 L 674 3324.400009298324" stroke-linejoin="round" stroke-miterlimit="10" stroke-width="10"/><path fill="none" stroke="url(#wSCeQISkpyUE)" paint-order="fill stroke markers" d=" M 400 3285.400009298324 L 400 3160.3000089406964 L 400 3160.3000089406964 L 400 3035.2000085830687" stroke-linejoin="round" stroke-miterlimit="10" stroke-width="10"/><path fill="none" stroke="url(#NfQzEATvzEtT)" paint-order="fill stroke markers" d=" M 674 3324.400009298324 L 1848.4500010728837 3324.400009298324 L 1848.4500010728837 1698.2000042915345 L 3022.9000021457673 1698.2000042915345" stroke-linejoin="round" stroke-miterlimit="10" stroke-width="10"/><path fill="none" stroke="url(#mEOrhagpXyrN)" paint-order="fill stroke markers" d=" M 674.0000000000001 3324.400009298324 L 1546.9500007152558 3324.400009298324 L 1546.9500007152558 2230.200007152557 L 2419.9000014305116 2230.200007152557" stroke-linejoin="round" stroke-miterlimit="10" stroke-width="10"/><path fill="none" stroke="url(#UiwfpPdnPIoP)" paint-order="fill stroke markers" d=" M 400 3285.400009298324 L 400 1813.450004649162 L 300 1813.450004649162 L 300 341.5" stroke-linejoin="round" stroke-miterlimit="10" stroke-width="10"/><path fill="none" stroke="url(#JlygDVeklEqM)" paint-order="fill stroke markers" d=" M 400 3413.40001001358 L 400 2377.0500060796735 L 2696.4000014305116 2377.0500060796735 L 2696.4000014305116 1340.7000021457673" stroke-linejoin="round" stroke-miterlimit="10" stroke-width="10"/><path fill="none" stroke="url(#gEHGUpOHTPqR)" paint-order="fill stroke markers" d=" M 400 3413.40001001358 L 400 2310.5500057220456 L 2696.4000014305116 2310.5500057220456 L 2696.4000014305116 1207.7000014305115" stroke-linejoin="round" stroke-miterlimit="10" stroke-width="10"/><path fill="none" stroke="url(#wmAohwIDOoyT)" paint-order="fill stroke markers" d=" M 400 3413.40001001358 L 400 1877.45000500679 L 300 1877.45000500679 L 300 341.5" stroke-linejoin="round" stroke-miterlimit="10" stroke-width="10"/><path fill="none" stroke="url(#HOhppEgpxOTC)" paint-order="fill stroke markers" d=" M 400 3413.40001001358 L 400 3224.3000092983243 L 400 3224.3000092983243 L 400 3035.2000085830687" stroke-linejoin="round" stroke-miterlimit="10" stroke-width="10"/><path fill="none" stroke="url(#HRACzwzahUKv)" paint-order="fill stroke markers" d=" M 674.0000000000001 1133.2000007152558 L 1546.9500007152558 1133.2000007152558 L 1546.9500007152558 2363.200007867813 L 2419.9000014305116 2363.200007867813" stroke-linejoin="round" stroke-miterlimit="10" stroke-width="10"/><path fill="none" stroke="url(#OkkGZilTfWJU)" paint-order="fill stroke markers" d=" M 674 1133.2000007152558 L 1848.4500010728837 1133.2000007152558 L 1848.4500010728837 1299.2000021457673 L 3022.9000021457673 1299.2000021457673" stroke-linejoin="round" stroke-miterlimit="10" stroke-width="10"/><path fill="none" stroke="url(#FBuuNTddDxvO)" paint-order="fill stroke markers" d=" M 674.0000000000001 1133.2000007152558 L 1546.9500007152558 1133.2000007152558 L 1546.9500007152558 2097.2000064373015 L 2419.9000014305116 2097.2000064373015" stroke-linejoin="round" stroke-miterlimit="10" stroke-width="10"/><path fill="none" stroke="url(#keWchVkBvQGN)" paint-order="fill stroke markers" d=" M 674 1133.2000007152558 L 1848.4500010728837 1133.2000007152558 L 1848.4500010728837 1033.2000007152558 L 3022.9000021457673 1033.2000007152558" stroke-linejoin="round" stroke-miterlimit="10" stroke-width="10"/><path fill="none" stroke="url(#ITmJzlEuhmyv)" paint-order="fill stroke markers" d=" M 674.0000000000001 1133.2000007152558 L 1546.9500007152558 1133.2000007152558 L 1546.9500007152558 1831.2000050067902 L 2419.9000014305116 1831.2000050067902" stroke-linejoin="round" stroke-miterlimit="10" stroke-width="10"/><path fill="none" stroke="url(#uliUbHPxiaAl)" paint-order="fill stroke markers" d=" M 674 1133.2000007152558 L 1848.4500010728837 1133.2000007152558 L 1848.4500010728837 2230.200007152557 L 3022.9000021457673 2230.200007152557" stroke-linejoin="round" stroke-miterlimit="10" stroke-width="10"/><path fill="none" stroke="url(#STbqmuxIrWuc)" paint-order="fill stroke markers" d=" M 674.0000000000001 1133.2000007152558 L 1546.9500007152558 1133.2000007152558 L 1546.9500007152558 1565.2000035762787 L 2419.9000014305116 1565.2000035762787" stroke-linejoin="round" stroke-miterlimit="10" stroke-width="10"/><path fill="none" stroke="url(#ZwBrAeAbmzmR)" paint-order="fill stroke markers" d=" M 674.0000000000001 1133.2000007152558 L 1546.9500007152558 1133.2000007152558 L 1546.9500007152558 1964.200005722046 L 2419.9000014305116 1964.200005722046" stroke-linejoin="round" stroke-miterlimit="10" stroke-width="10"/><path fill="none" stroke="url(#HPuTXEXrKvBv)" paint-order="fill stroke markers" d=" M 400 1172.2000007152558 L 400 1297.3000010728838 L 400 1297.3000010728838 L 400 1422.4000014305116" stroke-linejoin="round" stroke-miterlimit="10" stroke-width="10"/><path fill="none" stroke="url(#VibAmFqdqExC)" paint-order="fill stroke markers" d=" M 674 1133.2000007152558 L 1848.4500010728837 1133.2000007152558 L 1848.4500010728837 1565.2000035762787 L 3022.9000021457673 1565.2000035762787" stroke-linejoin="round" stroke-miterlimit="10" stroke-width="10"/><path fill="none" stroke="url(#McxZwcGTvfhq)" paint-order="fill stroke markers" d=" M 674 1133.2000007152558 L 1848.4500010728837 1133.2000007152558 L 1848.4500010728837 2097.2000064373015 L 3022.9000021457673 2097.2000064373015" stroke-linejoin="round" stroke-miterlimit="10" stroke-width="10"/><path fill="none" stroke="url(#TqmXJhiIREyB)" paint-order="fill stroke markers" d=" M 674 1133.2000007152558 L 1848.4500010728837 1133.2000007152558 L 1848.4500010728837 1166.2000014305115 L 3022.9000021457673 1166.2000014305115" stroke-linejoin="round" stroke-miterlimit="10" stroke-width="10"/><path fill="none" stroke="url(#fCPbmRtoTTdN)" paint-order="fill stroke markers" d=" M 674 1133.2000007152558 L 1500.6000007152556 1133.2000007152558 L 1500.6000007152556 400 L 2327.2000014305113 400" stroke-linejoin="round" stroke-miterlimit="10" stroke-width="10"/><path fill="none" stroke="url(#tonaTFheCKFD)" paint-order="fill stroke markers" d=" M 400 1500.4000014305116 L 400 2456.9000057220455 L 400 2456.9000057220455 L 400 3413.40001001358" stroke-linejoin="round" stroke-miterlimit="10" stroke-width="10"/><path fill="none" stroke="url(#iCpvruyXAPhm)" paint-order="fill stroke markers" d=" M 400 1500.4000014305116 L 400 2392.9000053644177 L 400 2392.9000053644177 L 400 3285.400009298324" stroke-linejoin="round" stroke-miterlimit="10" stroke-width="10"/><path fill="rgb(0,0,0)" stroke="rgb(0,0,0)" paint-order="fill stroke markers" d=" M 300 261 L 566 261 L 566 261 A 8 8 0 0 1 574 269 L 574 331 L 574 331 A 8 8 0 0 1 566 339 L 34 339 L 34 339 A 8 8 0 0 1 26 331 L 26 269 L 26 269 A 8 8 0 0 1 34 261 L 300 261 Z" fill-opacity="1" stroke-opacity="1" stroke-miterlimit="10" stroke-width="5"/><text fill="rgb(255,255,255)" stroke="none" font-family="Avenir, Helvetica, Arial, sans-serif" font-size="32px" font-style="normal" font-weight="bold" text-decoration="normal" x="300" y="316" text-anchor="middle" dominant-baseline="text-after-edge" fill-opacity="1">common_tags</text><path fill="rgb(255,236,236)" stroke="rgb(220,71,125)" paint-order="fill stroke markers" d=" M 3799.400002145767 361 L 4065.400002145767 361 L 4065.400002145767 361 A 8 8 0 0 1 4073.400002145767 369 L 4073.400002145767 431 L 4073.400002145767 431 A 8 8 0 0 1 4065.400002145767 439 L 3533.400002145767 439 L 3533.400002145767 439 A 8 8 0 0 1 3525.400002145767 431 L 3525.400002145767 369 L 3525.400002145767 369 A 8 8 0 0 1 3533.400002145767 361 L 3799.400002145767 361 Z" fill-opacity="1" stroke-opacity="1" stroke-miterlimit="10" stroke-width="5"/><text fill="rgb(0,0,0)" stroke="none" font-family="Avenir, Helvetica, Arial, sans-serif" font-size="32px" font-style="normal" font-weight="bold" text-decoration="normal" x="3799.400002145767" y="416" text-anchor="middle" dominant-baseline="text-after-edge" fill-opacity="1">ubuntu_ami</text><path fill="rgb(40,167,69)" stroke="none" paint-order="stroke fill markers" d=" M 400 1094.2000007152558 L 666 1094.2000007152558 L 666 1094.2000007152558 A 8 8 0 0 1 674 1102.2000007152558 L 674 1164.2000007152558 L 674 1164.2000007152558 A 8 8 0 0 1 666 1172.2000007152558 L 134 1172.2000007152558 L 134 1172.2000007152558 A 8 8 0 0 1 126 1164.2000007152558 L 126 1102.2000007152558 L 126 1102.2000007152558 A 8 8 0 0 1 134 1094.2000007152558 L 400 1094.2000007152558 Z" fill-opacity="1"/><text fill="rgb(255,255,255)" stroke="none" font-family="Avenir, Helvetica, Arial, sans-serif" font-size="32px" font-style="normal" font-weight="bold" text-decoration="normal" x="400" y="1149.2000007152558" text-anchor="middle" dominant-baseline="text-after-edge" fill-opacity="1">mysql_db</text><path fill="rgb(40,167,69)" stroke="none" paint-order="stroke fill markers" d=" M 400 1422.4000014305116 L 666 1422.4000014305116 L 666 1422.4000014305116 A 8 8 0 0 1 674 1430.4000014305116 L 674 1492.4000014305116 L 674 1492.4000014305116 A 8 8 0 0 1 666 1500.4000014305116 L 134 1500.4000014305116 L 134 1500.4000014305116 A 8 8 0 0 1 126 1492.4000014305116 L 126 1430.4000014305116 L 126 1430.4000014305116 A 8 8 0 0 1 134 1422.4000014305116 L 400 1422.4000014305116 Z" fill-opacity="1"/><text fill="rgb(255,255,255)" stroke="none" font-family="Avenir, Helvetica, Arial, sans-serif" font-size="32px" font-style="normal" font-weight="bold" text-decoration="normal" x="400" y="1477.4000014305116" text-anchor="middle" dominant-baseline="text-after-edge" fill-opacity="1">rds_subnet_group</text><path fill="rgb(40,167,69)" stroke="none" paint-order="stroke fill markers" d=" M 1403.0000007152557 361 L 1669.0000007152557 361 L 1669.0000007152557 361 A 8 8 0 0 1 1677.0000007152557 369 L 1677.0000007152557 431 L 1677.0000007152557 431 A 8 8 0 0 1 1669.0000007152557 439 L 1137.0000007152557 439 L 1137.0000007152557 439 A 8 8 0 0 1 1129.0000007152557 431 L 1129.0000007152557 369 L 1129.0000007152557 369 A 8 8 0 0 1 1137.0000007152557 361 L 1403.0000007152557 361 Z" fill-opacity="1"/><text fill="rgb(255,255,255)" stroke="none" font-family="Avenir, Helvetica, Arial, sans-serif" font-size="32px" font-style="normal" font-weight="bold" text-decoration="normal" x="1403.0000007152557" y="416" text-anchor="middle" dominant-baseline="text-after-edge" fill-opacity="1">web</text><path fill="rgb(40,167,69)" stroke="none" paint-order="stroke fill markers" d=" M 2601.2000014305113 361 L 2867.2000014305113 361 L 2867.2000014305113 361 A 8 8 0 0 1 2875.2000014305113 369 L 2875.2000014305113 431 L 2875.2000014305113 431 A 8 8 0 0 1 2867.2000014305113 439 L 2335.2000014305113 439 L 2335.2000014305113 439 A 8 8 0 0 1 2327.2000014305113 431 L 2327.2000014305113 369 L 2327.2000014305113 369 A 8 8 0 0 1 2335.2000014305113 361 L 2601.2000014305113 361 Z" fill-opacity="1"/><text fill="rgb(255,255,255)" stroke="none" font-family="Avenir, Helvetica, Arial, sans-serif" font-size="32px" font-style="normal" font-weight="bold" text-decoration="normal" x="2601.2000014305113" y="416" text-anchor="middle" dominant-baseline="text-after-edge" fill-opacity="1">allow_http_and_ssh</text><path fill="rgb(255,247,224)" stroke="rgb(255,193,7)" paint-order="fill stroke markers" d=" M 1498.2000007152558 994.2000007152558 L 1764.2000007152558 994.2000007152558 L 1764.2000007152558 994.2000007152558 A 8 8 0 0 1 1772.2000007152558 1002.2000007152558 L 1772.2000007152558 1064.2000007152558 L 1772.2000007152558 1064.2000007152558 A 8 8 0 0 1 1764.2000007152558 1072.2000007152558 L 1232.2000007152558 1072.2000007152558 L 1232.2000007152558 1072.2000007152558 A 8 8 0 0 1 1224.2000007152558 1064.2000007152558 L 1224.2000007152558 1002.2000007152558 L 1224.2000007152558 1002.2000007152558 A 8 8 0 0 1 1232.2000007152558 994.2000007152558 L 1498.2000007152558 994.2000007152558 Z" fill-opacity="1" stroke-opacity="1" stroke-miterlimit="10" stroke-width="5"/><text fill="rgb(0,0,0)" stroke="none" font-family="Avenir, Helvetica, Arial, sans-serif" font-size="32px" font-style="normal" font-weight="bold" text-decoration="normal" x="1498.2000007152558" y="1049.2000007152558" text-anchor="middle" dominant-baseline="text-after-edge" fill-opacity="1">rds_endpoint</text><path fill="rgb(40,167,69)" stroke="none" paint-order="stroke fill markers" d=" M 1598.2000007152558 1626.2000035762787 L 1864.2000007152558 1626.2000035762787 L 1864.2000007152558 1626.2000035762787 A 8 8 0 0 1 1872.2000007152558 1634.2000035762787 L 1872.2000007152558 1696.2000035762787 L 1872.2000007152558 1696.2000035762787 A 8 8 0 0 1 1864.2000007152558 1704.2000035762787 L 1332.2000007152558 1704.2000035762787 L 1332.2000007152558 1704.2000035762787 A 8 8 0 0 1 1324.2000007152558 1696.2000035762787 L 1324.2000007152558 1634.2000035762787 L 1324.2000007152558 1634.2000035762787 A 8 8 0 0 1 1332.2000007152558 1626.2000035762787 L 1598.2000007152558 1626.2000035762787 Z" fill-opacity="1"/><text fill="rgb(255,255,255)" stroke="none" font-family="Avenir, Helvetica, Arial, sans-serif" font-size="32px" font-style="normal" font-weight="bold" text-decoration="normal" x="1598.2000007152558" y="1681.2000035762787" text-anchor="middle" dominant-baseline="text-after-edge" fill-opacity="1">tf_ansible_vars_file_new</text><path fill="rgb(40,167,69)" stroke="none" paint-order="stroke fill markers" d=" M 1598.2000007152558 1754.2000042915345 L 1864.2000007152558 1754.2000042915345 L 1864.2000007152558 1754.2000042915345 A 8 8 0 0 1 1872.2000007152558 1762.2000042915345 L 1872.2000007152558 1824.2000042915345 L 1872.2000007152558 1824.2000042915345 A 8 8 0 0 1 1864.2000007152558 1832.2000042915345 L 1332.2000007152558 1832.2000042915345 L 1332.2000007152558 1832.2000042915345 A 8 8 0 0 1 1324.2000007152558 1824.2000042915345 L 1324.2000007152558 1762.2000042915345 L 1324.2000007152558 1762.2000042915345 A 8 8 0 0 1 1332.2000007152558 1754.2000042915345 L 1598.2000007152558 1754.2000042915345 Z" fill-opacity="1"/><text fill="rgb(255,255,255)" stroke="none" font-family="Avenir, Helvetica, Arial, sans-serif" font-size="32px" font-style="normal" font-weight="bold" text-decoration="normal" x="1598.2000007152558" y="1809.2000042915345" text-anchor="middle" dominant-baseline="text-after-edge" fill-opacity="1">ansible_hosts_file_new</text><path fill="rgb(255,247,224)" stroke="rgb(255,193,7)" paint-order="fill stroke markers" d=" M 1498.2000007152558 1127.2000014305115 L 1764.2000007152558 1127.2000014305115 L 1764.2000007152558 1127.2000014305115 A 8 8 0 0 1 1772.2000007152558 1135.2000014305115 L 1772.2000007152558 1197.2000014305115 L 1772.2000007152558 1197.2000014305115 A 8 8 0 0 1 1764.2000007152558 1205.2000014305115 L 1232.2000007152558 1205.2000014305115 L 1232.2000007152558 1205.2000014305115 A 8 8 0 0 1 1224.2000007152558 1197.2000014305115 L 1224.2000007152558 1135.2000014305115 L 1224.2000007152558 1135.2000014305115 A 8 8 0 0 1 1232.2000007152558 1127.2000014305115 L 1498.2000007152558 1127.2000014305115 Z" fill-opacity="1" stroke-opacity="1" stroke-miterlimit="10" stroke-width="5"/><text fill="rgb(0,0,0)" stroke="none" font-family="Avenir, Helvetica, Arial, sans-serif" font-size="32px" font-style="normal" font-weight="bold" text-decoration="normal" x="1498.2000007152558" y="1182.2000014305115" text-anchor="middle" dominant-baseline="text-after-edge" fill-opacity="1">public_ip</text><path fill="rgb(255,247,224)" stroke="rgb(255,193,7)" paint-order="fill stroke markers" d=" M 1498.2000007152558 1260.2000021457673 L 1764.2000007152558 1260.2000021457673 L 1764.2000007152558 1260.2000021457673 A 8 8 0 0 1 1772.2000007152558 1268.2000021457673 L 1772.2000007152558 1330.2000021457673 L 1772.2000007152558 1330.2000021457673 A 8 8 0 0 1 1764.2000007152558 1338.2000021457673 L 1232.2000007152558 1338.2000021457673 L 1232.2000007152558 1338.2000021457673 A 8 8 0 0 1 1224.2000007152558 1330.2000021457673 L 1224.2000007152558 1268.2000021457673 L 1224.2000007152558 1268.2000021457673 A 8 8 0 0 1 1232.2000007152558 1260.2000021457673 L 1498.2000007152558 1260.2000021457673 Z" fill-opacity="1" stroke-opacity="1" stroke-miterlimit="10" stroke-width="5"/><text fill="rgb(0,0,0)" stroke="none" font-family="Avenir, Helvetica, Arial, sans-serif" font-size="32px" font-style="normal" font-weight="bold" text-decoration="normal" x="1498.2000007152558" y="1315.2000021457673" text-anchor="middle" dominant-baseline="text-after-edge" fill-opacity="1">public_dns</text><path fill="rgb(255,247,224)" stroke="rgb(255,193,7)" paint-order="fill stroke markers" d=" M 1498.2000007152558 1393.200002861023 L 1764.2000007152558 1393.200002861023 L 1764.2000007152558 1393.200002861023 A 8 8 0 0 1 1772.2000007152558 1401.200002861023 L 1772.2000007152558 1463.200002861023 L 1772.2000007152558 1463.200002861023 A 8 8 0 0 1 1764.2000007152558 1471.200002861023 L 1232.2000007152558 1471.200002861023 L 1232.2000007152558 1471.200002861023 A 8 8 0 0 1 1224.2000007152558 1463.200002861023 L 1224.2000007152558 1401.200002861023 L 1224.2000007152558 1401.200002861023 A 8 8 0 0 1 1232.2000007152558 1393.200002861023 L 1498.2000007152558 1393.200002861023 Z" fill-opacity="1" stroke-opacity="1" stroke-miterlimit="10" stroke-width="5"/><text fill="rgb(0,0,0)" stroke="none" font-family="Avenir, Helvetica, Arial, sans-serif" font-size="32px" font-style="normal" font-weight="bold" text-decoration="normal" x="1498.2000007152558" y="1448.200002861023" text-anchor="middle" dominant-baseline="text-after-edge" fill-opacity="1">private_ip</text><path fill="rgb(225,240,255)" stroke="rgb(29,122,218)" paint-order="fill stroke markers" d=" M 2696.4000014305116 994.2000007152558 L 2962.4000014305116 994.2000007152558 L 2962.4000014305116 994.2000007152558 A 8 8 0 0 1 2970.4000014305116 1002.2000007152558 L 2970.4000014305116 1064.2000007152558 L 2970.4000014305116 1064.2000007152558 A 8 8 0 0 1 2962.4000014305116 1072.2000007152558 L 2430.4000014305116 1072.2000007152558 L 2430.4000014305116 1072.2000007152558 A 8 8 0 0 1 2422.4000014305116 1064.2000007152558 L 2422.4000014305116 1002.2000007152558 L 2422.4000014305116 1002.2000007152558 A 8 8 0 0 1 2430.4000014305116 994.2000007152558 L 2696.4000014305116 994.2000007152558 Z" fill-opacity="1" stroke-opacity="1" stroke-miterlimit="10" stroke-width="5"/><text fill="rgb(0,0,0)" stroke="none" font-family="Avenir, Helvetica, Arial, sans-serif" font-size="32px" font-style="normal" font-weight="bold" text-decoration="normal" x="2696.4000014305116" y="1049.2000007152558" text-anchor="middle" dominant-baseline="text-after-edge" fill-opacity="1">vpc_cidr_block</text><path fill="rgb(225,240,255)" stroke="rgb(29,122,218)" paint-order="fill stroke markers" d=" M 3299.4000021457673 994.2000007152558 L 3565.4000021457673 994.2000007152558 L 3565.4000021457673 994.2000007152558 A 8 8 0 0 1 3573.4000021457673 1002.2000007152558 L 3573.4000021457673 1064.2000007152558 L 3573.4000021457673 1064.2000007152558 A 8 8 0 0 1 3565.4000021457673 1072.2000007152558 L 3033.4000021457673 1072.2000007152558 L 3033.4000021457673 1072.2000007152558 A 8 8 0 0 1 3025.4000021457673 1064.2000007152558 L 3025.4000021457673 1002.2000007152558 L 3025.4000021457673 1002.2000007152558 A 8 8 0 0 1 3033.4000021457673 994.2000007152558 L 3299.4000021457673 994.2000007152558 Z" fill-opacity="1" stroke-opacity="1" stroke-miterlimit="10" stroke-width="5"/><text fill="rgb(0,0,0)" stroke="none" font-family="Avenir, Helvetica, Arial, sans-serif" font-size="32px" font-style="normal" font-weight="bold" text-decoration="normal" x="3299.4000021457673" y="1049.2000007152558" text-anchor="middle" dominant-baseline="text-after-edge" fill-opacity="1">identifier</text><path fill="rgb(225,240,255)" stroke="rgb(29,122,218)" paint-order="fill stroke markers" d=" M 2696.4000014305116 1127.2000014305115 L 2962.4000014305116 1127.2000014305115 L 2962.4000014305116 1127.2000014305115 A 8 8 0 0 1 2970.4000014305116 1135.2000014305115 L 2970.4000014305116 1197.2000014305115 L 2970.4000014305116 1197.2000014305115 A 8 8 0 0 1 2962.4000014305116 1205.2000014305115 L 2430.4000014305116 1205.2000014305115 L 2430.4000014305116 1205.2000014305115 A 8 8 0 0 1 2422.4000014305116 1197.2000014305115 L 2422.4000014305116 1135.2000014305115 L 2422.4000014305116 1135.2000014305115 A 8 8 0 0 1 2430.4000014305116 1127.2000014305115 L 2696.4000014305116 1127.2000014305115 Z" fill-opacity="1" stroke-opacity="1" stroke-miterlimit="10" stroke-width="5"/><text fill="rgb(0,0,0)" stroke="none" font-family="Avenir, Helvetica, Arial, sans-serif" font-size="32px" font-style="normal" font-weight="bold" text-decoration="normal" x="2696.4000014305116" y="1182.2000014305115" text-anchor="middle" dominant-baseline="text-after-edge" fill-opacity="1">public_subnet</text><path fill="rgb(225,240,255)" stroke="rgb(29,122,218)" paint-order="fill stroke markers" d=" M 3299.4000021457673 1127.2000014305115 L 3565.4000021457673 1127.2000014305115 L 3565.4000021457673 1127.2000014305115 A 8 8 0 0 1 3573.4000021457673 1135.2000014305115 L 3573.4000021457673 1197.2000014305115 L 3573.4000021457673 1197.2000014305115 A 8 8 0 0 1 3565.4000021457673 1205.2000014305115 L 3033.4000021457673 1205.2000014305115 L 3033.4000021457673 1205.2000014305115 A 8 8 0 0 1 3025.4000021457673 1197.2000014305115 L 3025.4000021457673 1135.2000014305115 L 3025.4000021457673 1135.2000014305115 A 8 8 0 0 1 3033.4000021457673 1127.2000014305115 L 3299.4000021457673 1127.2000014305115 Z" fill-opacity="1" stroke-opacity="1" stroke-miterlimit="10" stroke-width="5"/><text fill="rgb(0,0,0)" stroke="none" font-family="Avenir, Helvetica, Arial, sans-serif" font-size="32px" font-style="normal" font-weight="bold" text-decoration="normal" x="3299.4000021457673" y="1182.2000014305115" text-anchor="middle" dominant-baseline="text-after-edge" fill-opacity="1">username</text><path fill="rgb(225,240,255)" stroke="rgb(29,122,218)" paint-order="fill stroke markers" d=" M 2696.4000014305116 1260.2000021457673 L 2962.4000014305116 1260.2000021457673 L 2962.4000014305116 1260.2000021457673 A 8 8 0 0 1 2970.4000014305116 1268.2000021457673 L 2970.4000014305116 1330.2000021457673 L 2970.4000014305116 1330.2000021457673 A 8 8 0 0 1 2962.4000014305116 1338.2000021457673 L 2430.4000014305116 1338.2000021457673 L 2430.4000014305116 1338.2000021457673 A 8 8 0 0 1 2422.4000014305116 1330.2000021457673 L 2422.4000014305116 1268.2000021457673 L 2422.4000014305116 1268.2000021457673 A 8 8 0 0 1 2430.4000014305116 1260.2000021457673 L 2696.4000014305116 1260.2000021457673 Z" fill-opacity="1" stroke-opacity="1" stroke-miterlimit="10" stroke-width="5"/><text fill="rgb(0,0,0)" stroke="none" font-family="Avenir, Helvetica, Arial, sans-serif" font-size="32px" font-style="normal" font-weight="bold" text-decoration="normal" x="2696.4000014305116" y="1315.2000021457673" text-anchor="middle" dominant-baseline="text-after-edge" fill-opacity="1">aws_az</text><path fill="rgb(225,240,255)" stroke="rgb(29,122,218)" paint-order="fill stroke markers" d=" M 3299.4000021457673 1260.2000021457673 L 3565.4000021457673 1260.2000021457673 L 3565.4000021457673 1260.2000021457673 A 8 8 0 0 1 3573.4000021457673 1268.2000021457673 L 3573.4000021457673 1330.2000021457673 L 3573.4000021457673 1330.2000021457673 A 8 8 0 0 1 3565.4000021457673 1338.2000021457673 L 3033.4000021457673 1338.2000021457673 L 3033.4000021457673 1338.2000021457673 A 8 8 0 0 1 3025.4000021457673 1330.2000021457673 L 3025.4000021457673 1268.2000021457673 L 3025.4000021457673 1268.2000021457673 A 8 8 0 0 1 3033.4000021457673 1260.2000021457673 L 3299.4000021457673 1260.2000021457673 Z" fill-opacity="1" stroke-opacity="1" stroke-miterlimit="10" stroke-width="5"/><text fill="rgb(0,0,0)" stroke="none" font-family="Avenir, Helvetica, Arial, sans-serif" font-size="32px" font-style="normal" font-weight="bold" text-decoration="normal" x="3299.4000021457673" y="1315.2000021457673" text-anchor="middle" dominant-baseline="text-after-edge" fill-opacity="1">engine</text><path fill="rgb(225,240,255)" stroke="rgb(29,122,218)" paint-order="fill stroke markers" d=" M 2696.4000014305116 1393.200002861023 L 2962.4000014305116 1393.200002861023 L 2962.4000014305116 1393.200002861023 A 8 8 0 0 1 2970.4000014305116 1401.200002861023 L 2970.4000014305116 1463.200002861023 L 2970.4000014305116 1463.200002861023 A 8 8 0 0 1 2962.4000014305116 1471.200002861023 L 2430.4000014305116 1471.200002861023 L 2430.4000014305116 1471.200002861023 A 8 8 0 0 1 2422.4000014305116 1463.200002861023 L 2422.4000014305116 1401.200002861023 L 2422.4000014305116 1401.200002861023 A 8 8 0 0 1 2430.4000014305116 1393.200002861023 L 2696.4000014305116 1393.200002861023 Z" fill-opacity="1" stroke-opacity="1" stroke-miterlimit="10" stroke-width="5"/><text fill="rgb(0,0,0)" stroke="none" font-family="Avenir, Helvetica, Arial, sans-serif" font-size="32px" font-style="normal" font-weight="bold" text-decoration="normal" x="2696.4000014305116" y="1448.200002861023" text-anchor="middle" dominant-baseline="text-after-edge" fill-opacity="1">parameter_group_name</text><path fill="rgb(225,240,255)" stroke="rgb(29,122,218)" paint-order="fill stroke markers" d=" M 3299.4000021457673 1393.200002861023 L 3565.4000021457673 1393.200002861023 L 3565.4000021457673 1393.200002861023 A 8 8 0 0 1 3573.4000021457673 1401.200002861023 L 3573.4000021457673 1463.200002861023 L 3573.4000021457673 1463.200002861023 A 8 8 0 0 1 3565.4000021457673 1471.200002861023 L 3033.4000021457673 1471.200002861023 L 3033.4000021457673 1471.200002861023 A 8 8 0 0 1 3025.4000021457673 1463.200002861023 L 3025.4000021457673 1401.200002861023 L 3025.4000021457673 1401.200002861023 A 8 8 0 0 1 3033.4000021457673 1393.200002861023 L 3299.4000021457673 1393.200002861023 Z" fill-opacity="1" stroke-opacity="1" stroke-miterlimit="10" stroke-width="5"/><text fill="rgb(0,0,0)" stroke="none" font-family="Avenir, Helvetica, Arial, sans-serif" font-size="32px" font-style="normal" font-weight="bold" text-decoration="normal" x="3299.4000021457673" y="1448.200002861023" text-anchor="middle" dominant-baseline="text-after-edge" fill-opacity="1">company</text><path fill="rgb(225,240,255)" stroke="rgb(29,122,218)" paint-order="fill stroke markers" d=" M 2696.4000014305116 1526.2000035762787 L 2962.4000014305116 1526.2000035762787 L 2962.4000014305116 1526.2000035762787 A 8 8 0 0 1 2970.4000014305116 1534.2000035762787 L 2970.4000014305116 1596.2000035762787 L 2970.4000014305116 1596.2000035762787 A 8 8 0 0 1 2962.4000014305116 1604.2000035762787 L 2430.4000014305116 1604.2000035762787 L 2430.4000014305116 1604.2000035762787 A 8 8 0 0 1 2422.4000014305116 1596.2000035762787 L 2422.4000014305116 1534.2000035762787 L 2422.4000014305116 1534.2000035762787 A 8 8 0 0 1 2430.4000014305116 1526.2000035762787 L 2696.4000014305116 1526.2000035762787 Z" fill-opacity="1" stroke-opacity="1" stroke-miterlimit="10" stroke-width="5"/><text fill="rgb(0,0,0)" stroke="none" font-family="Avenir, Helvetica, Arial, sans-serif" font-size="32px" font-style="normal" font-weight="bold" text-decoration="normal" x="2696.4000014305116" y="1581.2000035762787" text-anchor="middle" dominant-baseline="text-after-edge" fill-opacity="1">storage_type</text><path fill="rgb(225,240,255)" stroke="rgb(29,122,218)" paint-order="fill stroke markers" d=" M 3299.4000021457673 1526.2000035762787 L 3565.4000021457673 1526.2000035762787 L 3565.4000021457673 1526.2000035762787 A 8 8 0 0 1 3573.4000021457673 1534.2000035762787 L 3573.4000021457673 1596.2000035762787 L 3573.4000021457673 1596.2000035762787 A 8 8 0 0 1 3565.4000021457673 1604.2000035762787 L 3033.4000021457673 1604.2000035762787 L 3033.4000021457673 1604.2000035762787 A 8 8 0 0 1 3025.4000021457673 1596.2000035762787 L 3025.4000021457673 1534.2000035762787 L 3025.4000021457673 1534.2000035762787 A 8 8 0 0 1 3033.4000021457673 1526.2000035762787 L 3299.4000021457673 1526.2000035762787 Z" fill-opacity="1" stroke-opacity="1" stroke-miterlimit="10" stroke-width="5"/><text fill="rgb(0,0,0)" stroke="none" font-family="Avenir, Helvetica, Arial, sans-serif" font-size="32px" font-style="normal" font-weight="bold" text-decoration="normal" x="3299.4000021457673" y="1581.2000035762787" text-anchor="middle" dominant-baseline="text-after-edge" fill-opacity="1">instance_class</text><path fill="rgb(225,240,255)" stroke="rgb(29,122,218)" paint-order="fill stroke markers" d=" M 2696.4000014305116 1659.2000042915345 L 2962.4000014305116 1659.2000042915345 L 2962.4000014305116 1659.2000042915345 A 8 8 0 0 1 2970.4000014305116 1667.2000042915345 L 2970.4000014305116 1729.2000042915345 L 2970.4000014305116 1729.2000042915345 A 8 8 0 0 1 2962.4000014305116 1737.2000042915345 L 2430.4000014305116 1737.2000042915345 L 2430.4000014305116 1737.2000042915345 A 8 8 0 0 1 2422.4000014305116 1729.2000042915345 L 2422.4000014305116 1667.2000042915345 L 2422.4000014305116 1667.2000042915345 A 8 8 0 0 1 2430.4000014305116 1659.2000042915345 L 2696.4000014305116 1659.2000042915345 Z" fill-opacity="1" stroke-opacity="1" stroke-miterlimit="10" stroke-width="5"/><text fill="rgb(0,0,0)" stroke="none" font-family="Avenir, Helvetica, Arial, sans-serif" font-size="32px" font-style="normal" font-weight="bold" text-decoration="normal" x="2696.4000014305116" y="1714.2000042915345" text-anchor="middle" dominant-baseline="text-after-edge" fill-opacity="1">instance_type</text><path fill="rgb(225,240,255)" stroke="rgb(29,122,218)" paint-order="fill stroke markers" d=" M 3299.4000021457673 1659.2000042915345 L 3565.4000021457673 1659.2000042915345 L 3565.4000021457673 1659.2000042915345 A 8 8 0 0 1 3573.4000021457673 1667.2000042915345 L 3573.4000021457673 1729.2000042915345 L 3573.4000021457673 1729.2000042915345 A 8 8 0 0 1 3565.4000021457673 1737.2000042915345 L 3033.4000021457673 1737.2000042915345 L 3033.4000021457673 1737.2000042915345 A 8 8 0 0 1 3025.4000021457673 1729.2000042915345 L 3025.4000021457673 1667.2000042915345 L 3025.4000021457673 1667.2000042915345 A 8 8 0 0 1 3033.4000021457673 1659.2000042915345 L 3299.4000021457673 1659.2000042915345 Z" fill-opacity="1" stroke-opacity="1" stroke-miterlimit="10" stroke-width="5"/><text fill="rgb(0,0,0)" stroke="none" font-family="Avenir, Helvetica, Arial, sans-serif" font-size="32px" font-style="normal" font-weight="bold" text-decoration="normal" x="3299.4000021457673" y="1714.2000042915345" text-anchor="middle" dominant-baseline="text-after-edge" fill-opacity="1">aws_az2</text><path fill="rgb(225,240,255)" stroke="rgb(29,122,218)" paint-order="fill stroke markers" d=" M 2696.4000014305116 1792.2000050067902 L 2962.4000014305116 1792.2000050067902 L 2962.4000014305116 1792.2000050067902 A 8 8 0 0 1 2970.4000014305116 1800.2000050067902 L 2970.4000014305116 1862.2000050067902 L 2970.4000014305116 1862.2000050067902 A 8 8 0 0 1 2962.4000014305116 1870.2000050067902 L 2430.4000014305116 1870.2000050067902 L 2430.4000014305116 1870.2000050067902 A 8 8 0 0 1 2422.4000014305116 1862.2000050067902 L 2422.4000014305116 1800.2000050067902 L 2422.4000014305116 1800.2000050067902 A 8 8 0 0 1 2430.4000014305116 1792.2000050067902 L 2696.4000014305116 1792.2000050067902 Z" fill-opacity="1" stroke-opacity="1" stroke-miterlimit="10" stroke-width="5"/><text fill="rgb(0,0,0)" stroke="none" font-family="Avenir, Helvetica, Arial, sans-serif" font-size="32px" font-style="normal" font-weight="bold" text-decoration="normal" x="2696.4000014305116" y="1847.2000050067902" text-anchor="middle" dominant-baseline="text-after-edge" fill-opacity="1">port</text><path fill="rgb(225,240,255)" stroke="rgb(29,122,218)" paint-order="fill stroke markers" d=" M 3299.4000021457673 1792.2000050067902 L 3565.4000021457673 1792.2000050067902 L 3565.4000021457673 1792.2000050067902 A 8 8 0 0 1 3573.4000021457673 1800.2000050067902 L 3573.4000021457673 1862.2000050067902 L 3573.4000021457673 1862.2000050067902 A 8 8 0 0 1 3565.4000021457673 1870.2000050067902 L 3033.4000021457673 1870.2000050067902 L 3033.4000021457673 1870.2000050067902 A 8 8 0 0 1 3025.4000021457673 1862.2000050067902 L 3025.4000021457673 1800.2000050067902 L 3025.4000021457673 1800.2000050067902 A 8 8 0 0 1 3033.4000021457673 1792.2000050067902 L 3299.4000021457673 1792.2000050067902 Z" fill-opacity="1" stroke-opacity="1" stroke-miterlimit="10" stroke-width="5"/><text fill="rgb(0,0,0)" stroke="none" font-family="Avenir, Helvetica, Arial, sans-serif" font-size="32px" font-style="normal" font-weight="bold" text-decoration="normal" x="3299.4000021457673" y="1847.2000050067902" text-anchor="middle" dominant-baseline="text-after-edge" fill-opacity="1">aws_region</text><path fill="rgb(225,240,255)" stroke="rgb(29,122,218)" paint-order="fill stroke markers" d=" M 2696.4000014305116 1925.200005722046 L 2962.4000014305116 1925.200005722046 L 2962.4000014305116 1925.200005722046 A 8 8 0 0 1 2970.4000014305116 1933.200005722046 L 2970.4000014305116 1995.200005722046 L 2970.4000014305116 1995.200005722046 A 8 8 0 0 1 2962.4000014305116 2003.200005722046 L 2430.4000014305116 2003.200005722046 L 2430.4000014305116 2003.200005722046 A 8 8 0 0 1 2422.4000014305116 1995.200005722046 L 2422.4000014305116 1933.200005722046 L 2422.4000014305116 1933.200005722046 A 8 8 0 0 1 2430.4000014305116 1925.200005722046 L 2696.4000014305116 1925.200005722046 Z" fill-opacity="1" stroke-opacity="1" stroke-miterlimit="10" stroke-width="5"/><text fill="rgb(0,0,0)" stroke="none" font-family="Avenir, Helvetica, Arial, sans-serif" font-size="32px" font-style="normal" font-weight="bold" text-decoration="normal" x="2696.4000014305116" y="1980.200005722046" text-anchor="middle" dominant-baseline="text-after-edge" fill-opacity="1">name</text><path fill="rgb(225,240,255)" stroke="rgb(29,122,218)" paint-order="fill stroke markers" d=" M 3299.4000021457673 1925.200005722046 L 3565.4000021457673 1925.200005722046 L 3565.4000021457673 1925.200005722046 A 8 8 0 0 1 3573.4000021457673 1933.200005722046 L 3573.4000021457673 1995.200005722046 L 3573.4000021457673 1995.200005722046 A 8 8 0 0 1 3565.4000021457673 2003.200005722046 L 3033.4000021457673 2003.200005722046 L 3033.4000021457673 2003.200005722046 A 8 8 0 0 1 3025.4000021457673 1995.200005722046 L 3025.4000021457673 1933.200005722046 L 3025.4000021457673 1933.200005722046 A 8 8 0 0 1 3033.4000021457673 1925.200005722046 L 3299.4000021457673 1925.200005722046 Z" fill-opacity="1" stroke-opacity="1" stroke-miterlimit="10" stroke-width="5"/><text fill="rgb(0,0,0)" stroke="none" font-family="Avenir, Helvetica, Arial, sans-serif" font-size="32px" font-style="normal" font-weight="bold" text-decoration="normal" x="3299.4000021457673" y="1980.200005722046" text-anchor="middle" dominant-baseline="text-after-edge" fill-opacity="1">project</text><path fill="rgb(225,240,255)" stroke="rgb(29,122,218)" paint-order="fill stroke markers" d=" M 2696.4000014305116 2058.2000064373015 L 2962.4000014305116 2058.2000064373015 L 2962.4000014305116 2058.2000064373015 A 8 8 0 0 1 2970.4000014305116 2066.2000064373015 L 2970.4000014305116 2128.2000064373015 L 2970.4000014305116 2128.2000064373015 A 8 8 0 0 1 2962.4000014305116 2136.2000064373015 L 2430.4000014305116 2136.2000064373015 L 2430.4000014305116 2136.2000064373015 A 8 8 0 0 1 2422.4000014305116 2128.2000064373015 L 2422.4000014305116 2066.2000064373015 L 2422.4000014305116 2066.2000064373015 A 8 8 0 0 1 2430.4000014305116 2058.2000064373015 L 2696.4000014305116 2058.2000064373015 Z" fill-opacity="1" stroke-opacity="1" stroke-miterlimit="10" stroke-width="5"/><text fill="rgb(0,0,0)" stroke="none" font-family="Avenir, Helvetica, Arial, sans-serif" font-size="32px" font-style="normal" font-weight="bold" text-decoration="normal" x="2696.4000014305116" y="2113.2000064373015" text-anchor="middle" dominant-baseline="text-after-edge" fill-opacity="1">engine_version</text><path fill="rgb(225,240,255)" stroke="rgb(29,122,218)" paint-order="fill stroke markers" d=" M 3299.4000021457673 2058.2000064373015 L 3565.4000021457673 2058.2000064373015 L 3565.4000021457673 2058.2000064373015 A 8 8 0 0 1 3573.4000021457673 2066.2000064373015 L 3573.4000021457673 2128.2000064373015 L 3573.4000021457673 2128.2000064373015 A 8 8 0 0 1 3565.4000021457673 2136.2000064373015 L 3033.4000021457673 2136.2000064373015 L 3033.4000021457673 2136.2000064373015 A 8 8 0 0 1 3025.4000021457673 2128.2000064373015 L 3025.4000021457673 2066.2000064373015 L 3025.4000021457673 2066.2000064373015 A 8 8 0 0 1 3033.4000021457673 2058.2000064373015 L 3299.4000021457673 2058.2000064373015 Z" fill-opacity="1" stroke-opacity="1" stroke-miterlimit="10" stroke-width="5"/><text fill="rgb(0,0,0)" stroke="none" font-family="Avenir, Helvetica, Arial, sans-serif" font-size="32px" font-style="normal" font-weight="bold" text-decoration="normal" x="3299.4000021457673" y="2113.2000064373015" text-anchor="middle" dominant-baseline="text-after-edge" fill-opacity="1">password</text><path fill="rgb(225,240,255)" stroke="rgb(29,122,218)" paint-order="fill stroke markers" d=" M 2696.4000014305116 2191.200007152557 L 2962.4000014305116 2191.200007152557 L 2962.4000014305116 2191.200007152557 A 8 8 0 0 1 2970.4000014305116 2199.200007152557 L 2970.4000014305116 2261.200007152557 L 2970.4000014305116 2261.200007152557 A 8 8 0 0 1 2962.4000014305116 2269.200007152557 L 2430.4000014305116 2269.200007152557 L 2430.4000014305116 2269.200007152557 A 8 8 0 0 1 2422.4000014305116 2261.200007152557 L 2422.4000014305116 2199.200007152557 L 2422.4000014305116 2199.200007152557 A 8 8 0 0 1 2430.4000014305116 2191.200007152557 L 2696.4000014305116 2191.200007152557 Z" fill-opacity="1" stroke-opacity="1" stroke-miterlimit="10" stroke-width="5"/><text fill="rgb(0,0,0)" stroke="none" font-family="Avenir, Helvetica, Arial, sans-serif" font-size="32px" font-style="normal" font-weight="bold" text-decoration="normal" x="2696.4000014305116" y="2246.200007152557" text-anchor="middle" dominant-baseline="text-after-edge" fill-opacity="1">private_subnet</text><path fill="rgb(225,240,255)" stroke="rgb(29,122,218)" paint-order="fill stroke markers" d=" M 3299.4000021457673 2191.200007152557 L 3565.4000021457673 2191.200007152557 L 3565.4000021457673 2191.200007152557 A 8 8 0 0 1 3573.4000021457673 2199.200007152557 L 3573.4000021457673 2261.200007152557 L 3573.4000021457673 2261.200007152557 A 8 8 0 0 1 3565.4000021457673 2269.200007152557 L 3033.4000021457673 2269.200007152557 L 3033.4000021457673 2269.200007152557 A 8 8 0 0 1 3025.4000021457673 2261.200007152557 L 3025.4000021457673 2199.200007152557 L 3025.4000021457673 2199.200007152557 A 8 8 0 0 1 3033.4000021457673 2191.200007152557 L 3299.4000021457673 2191.200007152557 Z" fill-opacity="1" stroke-opacity="1" stroke-miterlimit="10" stroke-width="5"/><text fill="rgb(0,0,0)" stroke="none" font-family="Avenir, Helvetica, Arial, sans-serif" font-size="32px" font-style="normal" font-weight="bold" text-decoration="normal" x="3299.4000021457673" y="2246.200007152557" text-anchor="middle" dominant-baseline="text-after-edge" fill-opacity="1">skip_final_snapshot</text><path fill="rgb(225,240,255)" stroke="rgb(29,122,218)" paint-order="fill stroke markers" d=" M 2696.4000014305116 2324.200007867813 L 2962.4000014305116 2324.200007867813 L 2962.4000014305116 2324.200007867813 A 8 8 0 0 1 2970.4000014305116 2332.200007867813 L 2970.4000014305116 2394.200007867813 L 2970.4000014305116 2394.200007867813 A 8 8 0 0 1 2962.4000014305116 2402.200007867813 L 2430.4000014305116 2402.200007867813 L 2430.4000014305116 2402.200007867813 A 8 8 0 0 1 2422.4000014305116 2394.200007867813 L 2422.4000014305116 2332.200007867813 L 2422.4000014305116 2332.200007867813 A 8 8 0 0 1 2430.4000014305116 2324.200007867813 L 2696.4000014305116 2324.200007867813 Z" fill-opacity="1" stroke-opacity="1" stroke-miterlimit="10" stroke-width="5"/><text fill="rgb(0,0,0)" stroke="none" font-family="Avenir, Helvetica, Arial, sans-serif" font-size="32px" font-style="normal" font-weight="bold" text-decoration="normal" x="2696.4000014305116" y="2379.200007867813" text-anchor="middle" dominant-baseline="text-after-edge" fill-opacity="1">allocated_storage</text><path fill="rgb(40,167,69)" stroke="none" paint-order="stroke fill markers" d=" M 400 3285.400009298324 L 666 3285.400009298324 L 666 3285.400009298324 A 8 8 0 0 1 674 3293.400009298324 L 674 3355.400009298324 L 674 3355.400009298324 A 8 8 0 0 1 666 3363.400009298324 L 134 3363.400009298324 L 134 3363.400009298324 A 8 8 0 0 1 126 3355.400009298324 L 126 3293.400009298324 L 126 3293.400009298324 A 8 8 0 0 1 134 3285.400009298324 L 400 3285.400009298324 Z" fill-opacity="1"/><text fill="rgb(255,255,255)" stroke="none" font-family="Avenir, Helvetica, Arial, sans-serif" font-size="32px" font-style="normal" font-weight="bold" text-decoration="normal" x="400" y="3340.400009298324" text-anchor="middle" dominant-baseline="text-after-edge" fill-opacity="1">private_subnet</text><path fill="rgb(40,167,69)" stroke="none" paint-order="stroke fill markers" d=" M 400 3413.40001001358 L 666 3413.40001001358 L 666 3413.40001001358 A 8 8 0 0 1 674 3421.40001001358 L 674 3483.40001001358 L 674 3483.40001001358 A 8 8 0 0 1 666 3491.40001001358 L 134 3491.40001001358 L 134 3491.40001001358 A 8 8 0 0 1 126 3483.40001001358 L 126 3421.40001001358 L 126 3421.40001001358 A 8 8 0 0 1 134 3413.40001001358 L 400 3413.40001001358 Z" fill-opacity="1"/><text fill="rgb(255,255,255)" stroke="none" font-family="Avenir, Helvetica, Arial, sans-serif" font-size="32px" font-style="normal" font-weight="bold" text-decoration="normal" x="400" y="3468.40001001358" text-anchor="middle" dominant-baseline="text-after-edge" fill-opacity="1">public_subnet</text><path fill="rgb(40,167,69)" stroke="none" paint-order="stroke fill markers" d=" M 400 2957.2000085830687 L 666 2957.2000085830687 L 666 2957.2000085830687 A 8 8 0 0 1 674 2965.2000085830687 L 674 3027.2000085830687 L 674 3027.2000085830687 A 8 8 0 0 1 666 3035.2000085830687 L 134 3035.2000085830687 L 134 3035.2000085830687 A 8 8 0 0 1 126 3027.2000085830687 L 126 2965.2000085830687 L 126 2965.2000085830687 A 8 8 0 0 1 134 2957.2000085830687 L 400 2957.2000085830687 Z" fill-opacity="1"/><text fill="rgb(255,255,255)" stroke="none" font-family="Avenir, Helvetica, Arial, sans-serif" font-size="32px" font-style="normal" font-weight="bold" text-decoration="normal" x="400" y="3012.2000085830687" text-anchor="middle" dominant-baseline="text-after-edge" fill-opacity="1">vpc_main</text><path fill="rgb(40,167,69)" stroke="none" paint-order="stroke fill markers" d=" M 1198.2000007152558 2957.2000085830687 L 1464.2000007152558 2957.2000085830687 L 1464.2000007152558 2957.2000085830687 A 8 8 0 0 1 1472.2000007152558 2965.2000085830687 L 1472.2000007152558 3027.2000085830687 L 1472.2000007152558 3027.2000085830687 A 8 8 0 0 1 1464.2000007152558 3035.2000085830687 L 932.2000007152558 3035.2000085830687 L 932.2000007152558 3035.2000085830687 A 8 8 0 0 1 924.2000007152558 3027.2000085830687 L 924.2000007152558 2965.2000085830687 L 924.2000007152558 2965.2000085830687 A 8 8 0 0 1 932.2000007152558 2957.2000085830687 L 1198.2000007152558 2957.2000085830687 Z" fill-opacity="1"/><text fill="rgb(255,255,255)" stroke="none" font-family="Avenir, Helvetica, Arial, sans-serif" font-size="32px" font-style="normal" font-weight="bold" text-decoration="normal" x="1198.2000007152558" y="3012.2000085830687" text-anchor="middle" dominant-baseline="text-after-edge" fill-opacity="1">igw_public</text><path fill="rgb(40,167,69)" stroke="none" paint-order="stroke fill markers" d=" M 1198.2000007152558 3285.400009298324 L 1464.2000007152558 3285.400009298324 L 1464.2000007152558 3285.400009298324 A 8 8 0 0 1 1472.2000007152558 3293.400009298324 L 1472.2000007152558 3355.400009298324 L 1472.2000007152558 3355.400009298324 A 8 8 0 0 1 1464.2000007152558 3363.400009298324 L 932.2000007152558 3363.400009298324 L 932.2000007152558 3363.400009298324 A 8 8 0 0 1 924.2000007152558 3355.400009298324 L 924.2000007152558 3293.400009298324 L 924.2000007152558 3293.400009298324 A 8 8 0 0 1 932.2000007152558 3285.400009298324 L 1198.2000007152558 3285.400009298324 Z" fill-opacity="1"/><text fill="rgb(255,255,255)" stroke="none" font-family="Avenir, Helvetica, Arial, sans-serif" font-size="32px" font-style="normal" font-weight="bold" text-decoration="normal" x="1198.2000007152558" y="3340.400009298324" text-anchor="middle" dominant-baseline="text-after-edge" fill-opacity="1">rb_public_subnet</text><path fill="rgb(40,167,69)" stroke="none" paint-order="stroke fill markers" d=" M 400 3741.600010728836 L 666 3741.600010728836 L 666 3741.600010728836 A 8 8 0 0 1 674 3749.600010728836 L 674 3811.600010728836 L 674 3811.600010728836 A 8 8 0 0 1 666 3819.600010728836 L 134 3819.600010728836 L 134 3819.600010728836 A 8 8 0 0 1 126 3811.600010728836 L 126 3749.600010728836 L 126 3749.600010728836 A 8 8 0 0 1 134 3741.600010728836 L 400 3741.600010728836 Z" fill-opacity="1"/><text fill="rgb(255,255,255)" stroke="none" font-family="Avenir, Helvetica, Arial, sans-serif" font-size="32px" font-style="normal" font-weight="bold" text-decoration="normal" x="400" y="3796.600010728836" text-anchor="middle" dominant-baseline="text-after-edge" fill-opacity="1">rb_private</text><path fill="rgb(40,167,69)" stroke="none" paint-order="stroke fill markers" d=" M 400 3869.6000114440917 L 666 3869.6000114440917 L 666 3869.6000114440917 A 8 8 0 0 1 674 3877.6000114440917 L 674 3939.6000114440917 L 674 3939.6000114440917 A 8 8 0 0 1 666 3947.6000114440917 L 134 3947.6000114440917 L 134 3947.6000114440917 A 8 8 0 0 1 126 3939.6000114440917 L 126 3877.6000114440917 L 126 3877.6000114440917 A 8 8 0 0 1 134 3869.6000114440917 L 400 3869.6000114440917 Z" fill-opacity="1"/><text fill="rgb(255,255,255)" stroke="none" font-family="Avenir, Helvetica, Arial, sans-serif" font-size="32px" font-style="normal" font-weight="bold" text-decoration="normal" x="400" y="3924.6000114440917" text-anchor="middle" dominant-baseline="text-after-edge" fill-opacity="1">rb_public</text><path fill="rgb(40,167,69)" stroke="none" paint-order="stroke fill markers" d=" M 1198.2000007152558 3413.40001001358 L 1464.2000007152558 3413.40001001358 L 1464.2000007152558 3413.40001001358 A 8 8 0 0 1 1472.2000007152558 3421.40001001358 L 1472.2000007152558 3483.40001001358 L 1472.2000007152558 3483.40001001358 A 8 8 0 0 1 1464.2000007152558 3491.40001001358 L 932.2000007152558 3491.40001001358 L 932.2000007152558 3491.40001001358 A 8 8 0 0 1 924.2000007152558 3483.40001001358 L 924.2000007152558 3421.40001001358 L 924.2000007152558 3421.40001001358 A 8 8 0 0 1 932.2000007152558 3413.40001001358 L 1198.2000007152558 3413.40001001358 Z" fill-opacity="1"/><text fill="rgb(255,255,255)" stroke="none" font-family="Avenir, Helvetica, Arial, sans-serif" font-size="32px" font-style="normal" font-weight="bold" text-decoration="normal" x="1198.2000007152558" y="3468.40001001358" text-anchor="middle" dominant-baseline="text-after-edge" fill-opacity="1">rb_private_subnet</text><g transform="scale(10,10) translate(-28.1,-5.050000000000001)"/></g></svg>