<svg xmlns="http://www.w3.org/2000/svg" version="1.1" width="600px" height="600px" viewBox="0 0 200 200" style="overflow:hidden!important;"><g id="svga-group-wrapper"><g id="svga-group-backs-single"><path id="SvgjsPath10364" d="M0 0h200v200H0V0z" fill="#f4cd28" stroke-width="none" opacity="1" stroke="none"></path><path id="SvgjsPath10365" d="M0 0v10.1L76.5 100 0 0zm0 34.1V50l76.5 58.3L0 34.1zm0 37.1v13.6l76.5 33.4L0 71.2zM38.3 0H21.1l67.2 108.3L38.3 0zm36.3 0H61l27.2 90L74.6 0zM0 108.3v9.9l76.5 9.9L0 108.3zM0 144v13.6l76.5-22.1L0 144zm0 35.7V200l88.3-64.5L0 179.7zM38.3 200h16.4l26.5-42.4L38.3 200zm85.2-100L200 10.1V0l-76.5 100zM200 50V34.1l-76.5 74.2L200 50zm0 34.8V71.2l-76.5 47L200 84.8zM178.9 0h-17.2l-50 108.3L178.9 0zM139 0h-13.6l-13.6 90L139 0zm61 118.2v-9.9L123.5 128l76.5-9.8zm0 39.4V144l-76.5-8.5 76.5 22.1zm0 42.4v-20.3l-88.3-44.2L200 200zm-54.7 0h16.4l-43-42.4 26.6 42.4zM111.7 0H88.3L100 100 111.7 0zM76.5 200h11.7l6.4-58.5L76.5 200zm35.2 0h11.7l-18.2-58.5 6.5 58.5zm-17 0h10.6l-5.3-42.4-5.3 42.4z" fill="#e5bc0f" stroke-width="none" opacity="1" stroke="none"></path></g><g id="svga-group-humanwrap-move" transform="matrix(1,0,0,1,0,0)"><g id="svga-group-humanwrap"><g id="svga-group-hair-back-move" transform="matrix(1,0,0,1,0,0)"><g id="svga-group-hair-back"></g></g><g id="svga-group-humanbody-back"><path id="SvgjsPath4601" d="m170 180.3-27.3-6.9-18-9.9-1.5-28.2H76.8l-1.5 28.2-18 9.9-27.3 6.9-9.1 19.7-3 20h164.2l-3-20z" fill="#f0c7b1" stroke-width="none" opacity="1" stroke="none"></path><path id="SvgjsPath4602" d="m76.8 135.3-1.5 28.2-18 9.9-27.3 6.9-9.1 19.7-3 20h14.6v-20l2.7-17.7 23.8-6.4 24.7-8.3 3.5-32.3z" fill="#d19271" stroke-width="none" opacity="1" stroke="none"></path></g><g id="svga-group-chinshadow-single"><path id="SvgjsPath10552" d="m121.5 149.1 2.2-3.8-.5-10H76.8l-.8 15.9 13.8 9.6h14.8z" fill="#c27b55" stroke-width="none" opacity="1"></path></g><g id="svga-group-humanbody-front"><path id="SvgjsPath4603" d="m92.8 168.3 2 7.9 6.9 4.6s-8.5-3-8.7-3.6c-.2-.6-.2-8.9-.2-8.9z" fill="#d19271" stroke-width="none" opacity="1" stroke="none"></path></g><g id="svga-group-clothes-single"><path id="SvgjsPath10319" d="m184.7 220-8.1-35.4-4.8-3.5-1.5-2-17.6-6.8-8.6-15.9-3.8-1.6-7.3-9-9.4-3.1.6 11-1.3 10.1-8.9 9.1-8.1 9.8-2.5 5-1.7-3.2-4.5-3.8-11.2-7.8-8.9-9.1-1.3-10.1.6-11-9.4 3.1-7.3 9-3.8 1.6-8.6 15.9-17.6 6.8-1.5 2-4.8 3.5-8.1 35.4z" fill="#2a0b3c" stroke-width="none" opacity="1" stroke="none"></path><path id="SvgjsPath10320" d="m134.2 188.8-15 3.8-9.9.2-.1-1.7 1.3-.1-.7-2.3-3.2.3-.1 2.3.8-.1v1.6h-2.1l2.1.2.1 5.9-.7 7.4 1.6 7.5.3 4.8 2.6-1-.3-5.1-2-6.6.9-7.3-.3-5.6 9.7.7 15.8-4.1 16-12.2 2-5.3-3.2 4.1-15.6 12.6zm-32.2 4.3-2.5-.2.2-1.8.6.1 1.2-2.2-3.3-2.3-2 1.9 1.2 2.3h.1v1.9l-1.5-.1-26-6.9-15.8-11 1.9-11L59 160l11 18.7 17.7 7.2-14.8-7.9-8.1-12.4 2.2-19.8-7.2 8.9-3.8 1.7-8.6 15.8-17.7 6.8-1.5 2-4.8 3.5-8.1 35.5h10.2l1.3-14.3 3.3-18.1 2.9 2.6 2.6 13.9 1.2 15.9v-16.2l-2.6-15.3-2.2-4.3 1.4-1.7 16.7-6L69 187.3l26.8 6.2 1.5-.1-.1 3.4 1.4 9.9s-3 9.8-2.8 9.9c.3.2 1.7 2.8 1.8 2.6.1-.3 3.5-12.5 3.5-12.5l-1.9-10.4.3-3.1 2.5-.1zm-26.2-39.4.6-10.8-4 5.1-.7 8.4 5.4 7.5-1.3-10.2zm49.1 11 6.7-6.9-.7-10.8-7.3-4.3.6 11-1.3 10.2-8.9 9.1-8.1 9.8-2.5 5 6.5-8.5 15-14.6zm-18.1 22.4 22.9-5 11.2-13.4 3.2-12.3-3.8-1.7-2.4 13-8.6 13.1-22.5 6.3zm56.5 9.7.8 21.6.5-20.4 4.5-13.1-5.8 11.9z" fill="#1e042d" stroke-width="none" opacity="1" stroke="none"></path><path id="SvgjsPath10321" d="m137.4 165.7 1.2-10.5-6-6.2 1.4 10.3-10.3 16.1-14 8.7 18.6-4.5 9.1-13.9zm13.6 6.2-6.2-10.1c.2.6-2.1 9.5-2.1 9.5l-10.3 12.4-15.5 7.2 16.7-3.1 15.7-12.6 1.7-3.3zm24.8 14-3.7-1.9-2.3 5.6 3.9 9.3 3.9 19.2 4.1.2-5.9-32.4zm-7.7-6.5-14.4-4.8-2.5 5-8.3 5.6 19.4.6 4.5 1.2 3.7-5.6-2.4-2zM85 175.6l-10.1-10.3-3.7-7.4-1.4.6 3.1 11.6 11.6 9.1 14.4 5.6 3.1 3.9-3.3-5.6-13.7-7.5zm43.1-12.5-16.7 16.1-6.6 8.5 13.4-11.6 9.9-13z" fill="#37154b" stroke-width="none" opacity="1" stroke="none"></path></g><g id="svga-group-head" transform="matrix(1,0,0,1,0,0)"><g id="svga-group-ears-left-move" transform="matrix(1,0,0,1,0,0)"><g id="svga-group-ears-left"><path id="SvgjsPath5780" d="M60.9 93s-5.5-3-7.7-3.9c0 0-3.9 5.4-5.1 7.2 0 0 3.1 14.7 3.9 17.3l5 6.5 5.4-1.7 4.2-14.2L60.9 93z" fill="#f0c7b1" stroke-width="none" opacity="1" stroke="none"></path><path id="SvgjsPath5781" d="M58.8 104.7c-.2-.4-6-10-6-10l-2.3 7.9 2.6-2.4 1.6 2.9s-.3 5-.2 5.5c0 .5 2.4 4.3 2.4 4.3l1.9-8.2z" fill="#d19271" stroke-width="none" opacity="1" stroke="none"></path><path id="SvgjsPath5782" d="m58.4 98-5.2-8.9c2.2.9 7.7 1.8 7.7 1.8l5.7 13.3-4.2 14.2-5.4 1.7 3.6-3.4L58.4 98z" fill="#e1ac8f" stroke-width="none" opacity="1" stroke="none"></path></g></g><g id="svga-group-ears-right-move" transform="matrix(1,0,0,1,0,0)"><g id="svga-group-ears-right"><path id="SvgjsPath5783" d="M139.1 93s5.5-3 7.7-3.9c0 0 3.9 5.4 5.1 7.2 0 0-3.1 14.7-3.9 17.3l-5 6.5-5.4-1.7-4.2-14.2 5.7-11.2z" fill="#f0c7b1" stroke-width="none" opacity="1" stroke="none"></path><path id="SvgjsPath5784" d="M141.2 104.7c.2-.4 6-10 6-10l2.3 7.9-2.6-2.4-1.6 2.9s.3 5 .2 5.5c0 .5-2.4 4.3-2.4 4.3l-1.9-8.2z" fill="#d19271" stroke-width="none" opacity="1" stroke="none"></path><path id="SvgjsPath5785" d="m141.6 98 5.2-8.9c-2.2.9-7.7 1.8-7.7 1.8l-5.7 13.3 4.2 14.2 5.4 1.7-3.6-3.4 2.2-18.7z" fill="#e1ac8f" stroke-width="none" opacity="1" stroke="none"></path></g></g><g id="svga-group-faceshape-wrap"><g id="svga-group-faceshape-single"><path id="SvgjsPath10542" d="M138.1 60c-6.9-11.6-19.7-19.5-19.7-19.5-7.2-1.5-18.4-2.3-18.4-2.3s-11.1.8-18.4 2.3c0 0-12.8 7.9-19.7 19.5 0 0-5.1 14.5-5.3 24.8l4.9 33.9 14.2 24.8 16.9 11.7h14.9l16.9-11.7 14.2-24.8 4.9-33.9c-.3-10.3-5.4-24.8-5.4-24.8z" fill="#f0c7b1" stroke-width="none" opacity="1"></path><path id="SvgjsPath10543" d="m92.7 152.7-14.6-12.3s-11.4-20.9-11.8-21.7c-.4-.9-5-34.3-5-34.3.2-4.8 4.5-21.5 5-22.2 2.1-3.2 16.5-18 16.5-18l17.1-4.1 18.5.4c-7.2-1.5-18.4-2.3-18.4-2.3s-11.1.8-18.4 2.3c0 0-12.8 7.9-19.7 19.5 0 0-5.1 14.5-5.3 24.8l4.9 33.9 14.2 24.8 16.9 11.7h14.9l16.9-11.7-18 10.4-13.7-1.2z" fill="#d19271" stroke-width="none" opacity="1"></path></g></g><g id="svga-group-mouth-single-move" transform="matrix(1,0,0,1,0,0)"><g id="svga-group-mouth-single"><path id="SvgjsPath5688" d="M88.68 129.98 96.5 123l3.61 1.45 3.59-1.25 7.85 7.43-2.93.27-8.87-2.83-8.97 2.15z" fill="#da7c87" stroke-width="none" opacity="1" transform="translate(0 2)" stroke="none"></path><path id="SvgjsPath5689" d="m84.5 129.3 6.4 1.3 9.1-1.9 8.6 2.5 6.3-.7-6.7-.2-8.3-2.8-9 2.3z" fill="#cb5f6c" stroke-width="none" opacity="1" transform="translate(0 2)" stroke="none"></path><path id="SvgjsPath5690" d="m89.67 131.96 4.8 4.7 11.4.2 1.8-1.8-2.6 1-10.4-.4z" fill="#d19271" stroke-width="none" opacity="1" transform="translate(0 2)" stroke="none"></path></g></g><g id="svga-group-eyes-left-move" transform="matrix(1,0,0,1,0,0)"><g id="svga-group-eyes-left"><g id="svga-group-eyesback-left"><path id="SvgjsPath9040" d="m91.4 96.5-7.2-6.3-8.9 2.9-4.6 6s8.9 1.5 11.5 1.7l9.2-4.3z" fill="#ffffff" stroke-width="none" opacity="1"></path></g><g id="svga-group-eyesiriswrapper-left" transform="matrix(1,0,0,1,0,0)"><g id="svga-group-eyesiriscontrol-left" transform="matrix(1,0,0,1,0,0)"><g id="svga-group-eyesiris-left"><path id="SvgjsPath9750" d="m77.2 97.7-.8-5 3.8-3.3 4.8 1.8.9 5-3.9 3.2z" fill="#162352" stroke-width="none" opacity="1"></path><path id="SvgjsPath9751" d="m80.3 89.9 4.3 1.6.8 4.5-3.5 2.9-4.3-1.6-.8-4.5 3.5-2.9m-.1-1-4.3 3.6.9 5.5 5.2 1.9 4.3-3.6-.9-5.5-5.2-1.9z" fill="#101d4a" stroke-width="none" opacity="1"></path><path id="SvgjsPath9752" d="m80.2 89.2 4.9 1.8.9 5.2-4 3.4-4.9-1.8-.9-5.2 4-3.4m-.1-.5-4.5 3.8 1 5.8 5.5 2 4.5-3.8-1-5.8-5.5-2z" fill="#040e33" stroke-width="none" opacity="1"></path><path id="SvgjsPath9753" d="m78.1 95.4.7-3.1 3-1 2.3 2.2-.6 3-3 1z" fill="#000000" stroke-width="none" opacity="1"></path><path id="SvgjsPath9754" d="M79.1 91.9h1.8v1.8h-1.8v-1.8z" fill="#ffffff" stroke-width="none" opacity="1"></path><path id="SvgjsPath9755" d="M81.5 96.3h1v1h-1v-1z" fill="#ffffff" stroke-width="none" opacity="1"></path></g></g></g><g id="svga-group-eyesfront-left"><path id="SvgjsPath9048" d="M67.1 89.3v11.9l7.9 8.4h11.2l7.9-8.4V89.3l-7.9-8.4H75l-7.9 8.4zm3.6 9.8 4.6-6 8.9-2.9 7.2 6.3-9.2 4.2c-2.6-.1-11.5-1.6-11.5-1.6z" fill="#f0c7b1" stroke-width="none" opacity="1" stroke="none"></path><path id="SvgjsPath9049" d="m68.5 99.2 6.5-6.5 15.3-5.5 3.2 10.6-7.9 7 6.7-7.5-1-.5-5.4 2.2 4.7-3-6-5-9.4 2.7-4.7 5.8 1.4-2.5z" fill="#e1ac8f" stroke-width="none" opacity="1" stroke="none"></path><path id="SvgjsPath9050" d="m70.5 99.5 4.7-5.8 12.6-3.3-2.9-.3-9.9 3.1z" fill="#000000" stroke-width="none" opacity="1" stroke="none"></path></g></g></g><g id="svga-group-eyes-right-move" transform="matrix(1,0,0,1,0,0)"><g id="svga-group-eyes-right"><g id="svga-group-eyesback-right"><path id="SvgjsPath9041" d="m108.6 96.5 7.2-6.3 8.9 2.9 4.6 6s-8.9 1.5-11.5 1.7l-9.2-4.3z" fill="#ffffff" stroke-width="none" opacity="1"></path></g><g id="svga-group-eyesiriswrapper-right" transform="matrix(1,0,0,1,0,0)"><g id="svga-group-eyesiriscontrol-right" transform="matrix(1,0,0,1,0,0)"><g id="svga-group-eyesiris-right"><path id="SvgjsPath9756" d="m115 97.7-.9-5 3.9-3.3 4.8 1.8.8 5-3.8 3.2z" fill="#162352" stroke-width="none" opacity="1"></path><path id="SvgjsPath9757" d="m118.1 89.9 4.3 1.6.8 4.5-3.5 2.9-4.3-1.6-.8-4.5 3.5-2.9m-.2-1-4.3 3.6.9 5.5 5.2 1.9 4.3-3.6-.9-5.5-5.2-1.9z" fill="#101d4a" stroke-width="none" opacity="1"></path><path id="SvgjsPath9758" d="m118 89.2 4.9 1.8.9 5.2-4 3.4-4.9-1.8-.9-5.2 4-3.4m-.1-.5-4.5 3.8 1 5.8 5.5 2 4.5-3.8-1-5.8-5.5-2z" fill="#000824" stroke-width="none" opacity="1"></path><path id="SvgjsPath9759" d="m115.9 95.4.6-3.1 3-1 2.4 2.2-.7 3-3 1z" fill="#000000" stroke-width="none" opacity="1"></path><path id="SvgjsPath9760" d="M116.9 91.9h1.8v1.8h-1.8v-1.8z" fill="#ffffff" stroke-width="none" opacity="1"></path><path id="SvgjsPath9761" d="M119.2 96.3h1v1h-1v-1z" fill="#ffffff" stroke-width="none" opacity="1"></path></g></g></g><g id="svga-group-eyesfront-right"><path id="SvgjsPath9051" d="M125 80.8h-11.2l-7.9 8.4v11.9l7.9 8.4H125l7.9-8.4V89.3l-7.9-8.5zm-7.2 19.9-9.2-4.2 7.2-6.3 8.9 2.9 4.6 6s-8.9 1.5-11.5 1.6z" fill="#f0c7b1" stroke-width="none" opacity="1" stroke="none"></path><path id="SvgjsPath9054" d="m131.5 99.2-6.5-6.5-15.3-5.5-3.2 10.6 7.9 7-6.7-7.5 1-.5 5.4 2.2-4.7-3 6-5 9.4 2.7 4.7 5.8-1.4-2.5z" fill="#e1ac8f" stroke-width="none" opacity="1" stroke="none"></path><path id="SvgjsPath9055" d="m129.5 99.5-4.7-5.8-12.6-3.3 2.9-.3 9.9 3.1z" fill="#000000" stroke-width="none" opacity="1" stroke="none"></path></g></g></g><g id="svga-group-facehighlight-single"></g><g id="svga-group-eyebrows-left-move" transform="matrix(1,0,0,1,0,0)"><g id="svga-group-eyebrows-left-rotate" transform="matrix(1,1.7453292144864463e-9,-1.7453292144864463e-9,1,1.4451326535436237e-7,-1.3849188462700113e-7)"><g id="svga-group-eyebrows-left"><path id="SvgjsPath10104" d="m88.9 77.9-5.5-.1-8.2 1.3-5.6 3.4-5.3 6.1L67 86l3.3-2.9 7.8-2 8.1 2.7 6.7-1.1.9-4.8z" fill="#2a232b" stroke-width="none" opacity="1"></path><path id="SvgjsPath10105" d="m92.9 82.7.9-4.7-2 3.8-5.1 1.4 1.6-3-2.7 2.8-7.6-2.5 2.5-1.4-4.3.6-6 3.4 7.8-2 8.1 2.8 6.8-1.2zM67 86l3.3-2.9-.7-.6-5.2 6L67 86z" fill="#1b141c" stroke-width="none" opacity="1"></path></g></g></g><g id="svga-group-eyebrows-right-move" transform="matrix(1,0,0,1,0,0)"><g id="svga-group-eyebrows-right-rotate" transform="matrix(1,1.7453292144864463e-9,-1.7453292144864463e-9,1,1.4451326535436237e-7,-2.1057397248114285e-7)"><g id="svga-group-eyebrows-right"><path id="SvgjsPath10106" d="m106.2 77.9.9 4.8 6.7 1.1 8.1-2.7 7.8 2L133 86l2.7 2.6-5.3-6.1-5.6-3.4-8.2-1.3-5.5.1z" fill="#2a232b" stroke-width="none" opacity="1"></path><path id="SvgjsPath10107" d="m113.8 83.8 8.1-2.8 7.8 2-5.9-3.4-4.3-.6 2.5 1.4-7.6 2.4-2.7-2.8 1.6 3-5.1-1.4-2-3.8.9 4.7 6.7 1.3zm21.9 4.8-5.2-6-.7.6L133 86l2.7 2.6z" fill="#1b141c" stroke-width="none" opacity="1"></path></g></g></g><g id="svga-group-beardwrap"><g id="svga-group-beard-single-move" transform="matrix(1,0,0,1,0,0)"><g id="svga-group-beard-single"><path id="SvgjsPath7118" d="m91.09 140.58 2.53 6.84 6.18 4.31 7.18-5.08 1.98-6.18-9.05 1.11z" fill="#2a232b" stroke-width="none" opacity="1"></path><path id="SvgjsPath7119" d="m105.2 140.93-5.28.64-6.43-.72c.83 1.65 2.62 5.13 2.93 5.33.4.27 3.09 3.23 3.09 3.23l4.84-3.36.85-5.12z" fill="#1b141c" stroke-width="none" opacity="1"></path></g></g></g><g id="svga-group-mustache-single-move" transform="matrix(1,0,0,1,0,0)"><g id="svga-group-mustache-single"><path id="SvgjsPath6869" d="m99.8 120.7-.1 2.5-.5 1.3-10.3-.5-5.5-.5v-.7l9.5-1.9 6.9-.2zm1.1 0 .1 2.5.5 1.3 10.3-.5 5.6-.5v-.7l-9.6-1.9-6.9-.2z" fill="#2a232b" stroke-width="none" opacity="1"></path><path id="SvgjsPath6870" d="m99.1 121.2-1.8 1.5-.9 1.2 1.8-1.4.9-1.3zm-1.3.2s-1.5 1.2-1.6 1.2-3 1.2-3 1.2l2.3-1.2 2.3-1.2zm-3-.1-1.5 1.3-2.9 1.2 2.5-1.4 1.9-1.1zm1.5-.1-1.6 1 2.8-1h-1.2zm-3.8.4-2.9.9-2.1 1.1 2.6-.9 2.4-1.1zm-4.3.6c-.2.1-1.7.5-1.7.5l-.9.5 1.8-.5.8-.5zm-4.3.9 1.7-.4-.9.5-.8-.1zm17.7-1.9 1.8 1.5.9 1.2-1.8-1.4-.9-1.3zm1.3.2s1.5 1.2 1.6 1.2 3 1.2 3 1.2l-2.3-1.2-2.3-1.2zm3-.1 1.5 1.3 2.9 1.2-2.5-1.4-1.9-1.1zm-1.5-.1 1.6 1-2.8-1h1.2zm3.8.4 2.9.9 2.1 1.1-2.6-.9-2.4-1.1zm4.4.6c.2.1 1.7.5 1.7.5l.9.5-1.8-.5-.8-.5zm4.2.9-1.7-.4.9.5.8-.1z" fill="#3a353a" stroke-width="none" opacity="1"></path></g></g><g id="svga-group-nose-single-move" transform="matrix(1,0,0,1,0,0)"><g id="svga-group-nose-single"><path id="SvgjsPath5366" d="m104.02 101.62 6.37 11.09-2.65 3.58-2.86-2.01-1.86 3.72h-6.3l-1.79-3.72-2.93 1.86-2.58-3.65 6.73-11.37 3.86-1.65z" fill="#f0c7b1" stroke-width="none" opacity="1" transform="translate(0 1)" stroke="none"></path><path id="SvgjsPath5367" d="m104.31 101.38-1.02-.41 6.61 11.51-2.05 2.93-1.77-1.21.28-1.31-1.4.6-2.05 4.04-2.7.1-3.2-.1-2.05-4.04-1.4-.6.28 1.31-1.77 1.21-2.04-2.93 6.61-11.51.42-13.8-1.45 14.21-6.7 11.3 3.26 4.24 2.79-2.01 1.58 3.53h6.84l1.58-3.53 2.8 2.01 3.26-4.24z" fill="#d19271" stroke-width="none" opacity="1" transform="translate(0 1)" stroke="none"></path><path id="SvgjsPath5368" d="m96.51 113.01 1.67.79 3.93.1 1.96-.89-.74-3.01-1.27-3.98-2.6 5.23z" fill="#f8d5c3" stroke-width="none" opacity="1" transform="translate(0 1)" stroke="none"></path></g></g><g id="svga-group-hair-front"><path id="SvgjsPath6563" d="m96.8 52.3 2.7 2.7 5.9 1.3 1.1 5.5-4.2 4.2 8.2-4 2.7-6.8 2.7 4.4 7.6 1.9 2.3-1.1-2.3 5.2 7.1 6.6 2.5-2.5v5.8l3.4 2.9-1.2 4.8 2.8 4.7 2 1.8v2l-1.2.1L137 96l3.2.8-1.1 2.7-2.5 3.9 2.9 3.1-1.7 2.4.5 4.1 3.3.4-1.3-2.3.6-1.5 3.2-3.2-3-4.4 3.2-6.1-.8-1.5s7.7-4.5 7.5-5.2-1.2-5.4-1.2-5.4l.9-2.6s-.4-3.7-.4-4.2 2.2-5.5 2.2-5.5l-1.9-7-1.9-3-1.8-7-5.8-3.9-3.6-4.5-2.8-5-6.5-2.5-2.1-2.5-9.9-6.2-2.5 1.7-7.6-1-1.5-2.9-4.6.8-2.7 1.1-6.3-.4-4.2 3-7.6-.5-3.6 3-2.3 3.6-4.4.6-8.6 4.8-1.7 5.8-2.5 1.3-3 6.3-1.1 3.5-3.1 3.1-.3 7.1 2.3 5.9-2.7 5.3 2.4 8.3 5.1 3.1 1.5 4.8 2.3 4 3 2.1-.2 2.8-4.2 5 7.7-3.9 1.1-7-4.7-7.7 3.3-6.8-1.4-6.5 1.2-8.1 6.1-4.9 5.7 3.6 7.2-2.1 8.6-11 1.5-3.6 2.4-1.8z" fill="#2a232b" stroke-width="none" opacity="1" stroke="none"></path><path id="SvgjsPath6564" d="m86.5 49.7-3.9 7.7-6.8 1.8-5-4.8-4.1-3.2-3 3.2 1.6 3.2-4.3-3.4 6.8-7.3 5.5 4.3 3.4 4.8 3.9-.5 5.9-5.8zM85 43.8l3.1-6.4 18.7-1.5 3.6 8.7-2.2 5.3-4 .9 2.7-2.5.5-5.3-2.4-5.5-16.4.9-3.6 5.4zm32.2 1.5 1.4 8.7 6.4 3.5 6-2 2.4-3.8-4 2.7-4.7.4-4.9-2.4-2.6-7.1zm18.2 8.5s5.6-1.5 6.2-1.3 4.2 2 4.2 2l1.8 6.9-1.8 4.2-.4-5.5-1.3-4.7-3.6-1.5-5.1-.1zm-3.8 6.6 4-2.7 3.6-.7-4.2 2.4-3.4 1zm-55.1-.2-7.3 3.6-8.7-2.7-7.1-.2-3.3 4.2.7 4.4.9-4.9 3.1-2.4 6.7 1.3 8.2 3.8 5.3-3.6 1.5-3.5zm-12 25.3L62 77.8l-5.1-2-4.7 2L50 82l1.5 4.2.4-3.8 5.6-3.8 3.6 1.1 3.4 5.8zM54 87.6l6.9 5.6 4.9 7.8-7.1-6.9-4.7-6.5zm32.6-50.2L83 34.2l-4.6.2-2.9 6.3 2.9 5.9 4.8 4-6.1-2.9-3.8-6.3-.1-3.1 2.3-3.6 3.6-3 7.6.5-.1 5.2zM102.3 66l8.2-4 2.7-6.8-1.7-9.7-8.4-4.1-8.1 2.1 8.6 1.7 4.9 2.6 1.8 7.3-1.1 6-6.9 4.9zm23.6-30.1 1.4 7.2 5.5 4.4 3.4-.2-4.6-2.4-3.6-6.6-2.1-2.4zm4.6 36.2 2.7-5.7 4.7.2-2.6 8.4 3.4 3.4 2.9-2.4-2.3 4.7-2.9-2.4-3.4-2.9v-5.8l-2.5 2.5zm20-8-7.4 7.4 2.9 7.7 1.8 6.6-5.5 6 1 2.2 7.5-5.2-1.2-5.4.9-3.3-.4-4.2 2.2-5.5-1.8-6.3zM113.6 33l3.5 8.4 6.4-.2 1.5-3.5-5.1 1.5-3.9-9.5-2.5 1.7.1 1.6z" fill="#322c33" stroke-width="none" opacity="1" stroke="none"></path></g><g id="svga-group-glasses-single-move" transform="matrix(1,0,0,1,0,0)"><g id="svga-group-glasses-single"><path id="SvgjsPath8613" d="M88.1 88.7h-8.7l-6.1 6.1v8.6l6.1 6.1h8.7l6.1-6.1v-8.6l-6.1-6.1zm23.8 0h8.7l6.1 6.1v8.6l-6.1 6.1h-8.7l-6.1-6.1v-8.6l6.1-6.1z" fill="#ffffff" stroke-width="none" opacity="0.28"></path><path id="SvgjsPath8614" d="m89.3 103.4.2-.2-12.6-11-.2.2 12.6 11zm-3.8 4.7.1-.3-9.8-8.5-.1.2 9.8 8.6zm6.4-8.4.2-.3-9.8-8.5-.2.2 9.8 8.6zm-3.4-.5.2-.3-9.8-8.5-.2.2 9.8 8.6z" fill="#ffffff" stroke-width="none" opacity="0.28"></path><path id="SvgjsPath8615" d="m122.1 103.8.2-.3-12.6-11-.2.3 12.6 11zm-3.8 4.6.2-.2-9.8-8.6-.2.3 9.8 8.5zm6.4-8.4.2-.2-9.8-8.6-.2.3 9.8 8.5zm-3.3-.5.1-.2-9.8-8.6-.1.3 9.8 8.5z" fill="#ffffff" stroke-width="none" opacity="0.28"></path><path id="SvgjsPath8616" d="M127.2 95.1v-.5l-6.4-6.4h-9l-6.4 6.4v3.6H94.7v-3.6l-6.4-6.4h-9l-6.4 6.4v.5H70V98h2.9v5.6l6.4 6.4h9l6.4-6.4v-3.9h10.6v3.9l6.4 6.4h9l6.4-6.4V98h2.9v-2.9h-2.8zm-33.5 8.1-5.8 5.8h-8.2l-5.8-5.8V95l5.8-5.8h8.2l5.8 5.8v3.2h-.5v1.5h.5v3.5zm32.5 0-5.8 5.8h-8.2l-5.8-5.8v-3.5h.4v-1.5h-.4V95l5.8-5.8h8.2l5.8 5.8v8.2z" fill="#26120b" stroke-width="none" opacity="1" stroke="none"></path></g></g></g></g></g><rect id="svga-credit-rect" width="200" height="15" x="0" y="185" fill="#ecf0f1" opacity="0.5" style="display: none;"></rect><text id="svga-credit-text" font-family="Avenir Next, Roboto, Helvetica, Arial, sans-serif" font-size="10px" text-anchor="start" font-weight="400" size="10px" anchor="start" weight="400" fill="#333333" x="33.298973083496094" y="182.60824728012085" style="display: none;"><tspan id="SvgjsTspan4465" dy="13" x="33.298973083496094">Created on AvatarMaker.com</tspan></text></g><defs id="SvgjsDefs4412"></defs></svg>